<svg width="21" height="21" viewBox="0 0 21 21" fill="none" xmlns="http://www.w3.org/2000/svg">
<path d="M19.2493 8.46126C19.1941 8.30121 19.0935 8.16064 18.96 8.05658C18.8264 7.95252 18.6655 7.88945 18.4968 7.87502L13.5181 7.14878L11.2869 2.62509C11.2153 2.47715 11.1034 2.35239 10.9641 2.26509C10.8248 2.1778 10.6638 2.1315 10.4994 2.1315C10.3351 2.1315 10.174 2.1778 10.0347 2.26509C9.89546 2.35239 9.78359 2.47715 9.71194 2.62509L7.48072 7.14003L2.50203 7.87502C2.34009 7.89803 2.18785 7.96598 2.06257 8.07115C1.9373 8.17632 1.84401 8.3145 1.79329 8.47001C1.74687 8.62197 1.7427 8.78371 1.78124 8.93786C1.81978 9.09201 1.89957 9.23276 2.01204 9.345L5.62574 12.845L4.75075 17.8149C4.71952 17.9789 4.73587 18.1485 4.79789 18.3035C4.85991 18.4586 4.965 18.5926 5.10075 18.6899C5.23306 18.7845 5.38912 18.8403 5.55141 18.8511C5.7137 18.8619 5.87579 18.8273 6.01949 18.7511L10.4994 16.4149L14.9619 18.7599C15.0847 18.8292 15.2234 18.8653 15.3644 18.8649C15.5497 18.8655 15.7305 18.8073 15.8806 18.6986C16.0164 18.6014 16.1214 18.4673 16.1835 18.3123C16.2455 18.1572 16.2618 17.9877 16.2306 17.8236L15.3556 12.8537L18.9693 9.35375C19.0956 9.24672 19.189 9.10604 19.2386 8.94806C19.2881 8.79008 19.2919 8.62127 19.2493 8.46126ZM13.8681 11.9612C13.7655 12.0605 13.6887 12.1833 13.6445 12.3191C13.6003 12.4548 13.5899 12.5993 13.6144 12.74L14.2444 16.4062L10.9544 14.6562C10.8278 14.5888 10.6866 14.5535 10.5432 14.5535C10.3998 14.5535 10.2585 14.5888 10.1319 14.6562L6.84198 16.4062L7.47197 12.74C7.49641 12.5993 7.48607 12.4548 7.44184 12.3191C7.39761 12.1833 7.32084 12.0605 7.21822 11.9612L4.59326 9.33625L8.27696 8.80251C8.4187 8.78279 8.55345 8.7286 8.66939 8.6447C8.78533 8.5608 8.87891 8.44974 8.94195 8.32126L10.4994 4.98756L12.1444 8.33001C12.2074 8.45849 12.301 8.56955 12.417 8.65345C12.5329 8.73735 12.6677 8.79154 12.8094 8.81125L16.4931 9.345L13.8681 11.9612Z" fill="white"/>
</svg>
