<svg width="21" height="21" viewBox="0 0 21 21" fill="none" xmlns="http://www.w3.org/2000/svg">
<path d="M4.37591 8.68235C4.37591 12.9276 8.08977 16.4383 9.73363 17.7843C9.96889 17.9769 10.0879 18.0744 10.2634 18.1238C10.4001 18.1623 10.6013 18.1623 10.7379 18.1238C10.9138 18.0743 11.032 17.9778 11.2682 17.7844C12.912 16.4384 16.6257 12.928 16.6257 8.68274C16.6257 7.07616 15.9804 5.53519 14.8318 4.39917C13.6831 3.26315 12.1253 2.62494 10.5009 2.62494C8.87647 2.62494 7.3185 3.26325 6.16986 4.39927C5.02121 5.53529 4.37591 7.07577 4.37591 8.68235Z" stroke="white" stroke-width="1.7254" stroke-linecap="round" stroke-linejoin="round"/>
<path d="M8.75085 7.87487C8.75085 8.84135 9.53434 9.62485 10.5008 9.62485C11.4673 9.62485 12.2508 8.84135 12.2508 7.87487C12.2508 6.90838 11.4673 6.12489 10.5008 6.12489C9.53434 6.12489 8.75085 6.90838 8.75085 7.87487Z" stroke="white" stroke-width="1.7254" stroke-linecap="round" stroke-linejoin="round"/>
</svg>
