<svg width="21" height="21" viewBox="0 0 21 21" fill="none" xmlns="http://www.w3.org/2000/svg">
<path d="M10.7629 10.6924C11.2298 10.2883 11.6043 9.78842 11.8609 9.22679C12.1176 8.66517 12.2504 8.05491 12.2504 7.43742C12.2504 6.27711 11.7895 5.16433 10.969 4.34387C10.1486 3.52341 9.03579 3.06248 7.87549 3.06248C6.71518 3.06248 5.6024 3.52341 4.78193 4.34387C3.96147 5.16433 3.50054 6.27711 3.50054 7.43742C3.50054 8.05491 3.63337 8.66517 3.89002 9.22679C4.14668 9.78842 4.52115 10.2883 4.98802 10.6924C3.76316 11.247 2.72396 12.1427 1.99467 13.2723C1.26538 14.4019 0.876866 15.7177 0.875578 17.0623C0.875578 17.2944 0.967764 17.5169 1.13186 17.681C1.29595 17.8451 1.5185 17.9373 1.75057 17.9373C1.98263 17.9373 2.20518 17.8451 2.36928 17.681C2.53337 17.5169 2.62555 17.2944 2.62555 17.0623C2.62555 15.6699 3.17867 14.3346 4.16322 13.35C5.14778 12.3655 6.48312 11.8124 7.87549 11.8124C9.26785 11.8124 10.6032 12.3655 11.5877 13.35C12.5723 14.3346 13.1254 15.6699 13.1254 17.0623C13.1254 17.2944 13.2176 17.5169 13.3817 17.681C13.5458 17.8451 13.7683 17.9373 14.0004 17.9373C14.2325 17.9373 14.455 17.8451 14.6191 17.681C14.7832 17.5169 14.8754 17.2944 14.8754 17.0623C14.8741 15.7177 14.4856 14.4019 13.7563 13.2723C13.027 12.1427 11.9878 11.247 10.7629 10.6924ZM7.87549 10.0624C7.35632 10.0624 6.84881 9.90844 6.41713 9.62C5.98546 9.33157 5.64901 8.9216 5.45033 8.44195C5.25166 7.9623 5.19967 7.43451 5.30096 6.92532C5.40224 6.41612 5.65225 5.9484 6.01936 5.58129C6.38646 5.21418 6.85419 4.96418 7.36338 4.86289C7.87257 4.76161 8.40037 4.81359 8.88002 5.01227C9.35967 5.21095 9.76963 5.5474 10.0581 5.97907C10.3465 6.41074 10.5005 6.91825 10.5005 7.43742C10.5005 8.13361 10.2239 8.80128 9.73162 9.29355C9.23934 9.78583 8.57167 10.0624 7.87549 10.0624ZM16.3979 10.3424C16.9578 9.71181 17.3236 8.93283 17.4512 8.09921C17.5788 7.26559 17.4627 6.41288 17.1169 5.6437C16.7711 4.87452 16.2104 4.22166 15.5023 3.76372C14.7941 3.30577 13.9687 3.06225 13.1254 3.06248C12.8934 3.06248 12.6708 3.15467 12.5067 3.31876C12.3426 3.48285 12.2504 3.70541 12.2504 3.93747C12.2504 4.16953 12.3426 4.39209 12.5067 4.55618C12.6708 4.72027 12.8934 4.81246 13.1254 4.81246C13.8216 4.81246 14.4893 5.08901 14.9815 5.58129C15.4738 6.07357 15.7504 6.74124 15.7504 7.43742C15.7491 7.897 15.6273 8.3482 15.3969 8.7459C15.1666 9.1436 14.8359 9.47385 14.4379 9.70364C14.3082 9.77847 14.1998 9.88535 14.1232 10.014C14.0466 10.1427 14.0043 10.2889 14.0004 10.4386C13.9967 10.5872 14.031 10.7342 14.0999 10.8659C14.1687 10.9975 14.27 11.1094 14.3942 11.1911L14.7354 11.4186L14.8491 11.4799C15.9039 11.9801 16.7936 12.7713 17.4137 13.7604C18.0338 14.7494 18.3583 15.895 18.3491 17.0623C18.3491 17.2944 18.4413 17.5169 18.6054 17.681C18.7695 17.8451 18.992 17.9373 19.2241 17.9373C19.4561 17.9373 19.6787 17.8451 19.8428 17.681C20.0069 17.5169 20.0991 17.2944 20.0991 17.0623C20.1062 15.7196 19.7699 14.3973 19.1221 13.2211C18.4743 12.045 17.5365 11.054 16.3979 10.3424Z" fill="white"/>
</svg>
