<svg width="21" height="21" viewBox="0 0 21 21" fill="none" xmlns="http://www.w3.org/2000/svg">
<path d="M18.9573 9.04455C19.2314 8.79108 19.0825 8.33285 18.7118 8.28889L13.4587 7.66582C13.3076 7.64791 13.1764 7.55303 13.1127 7.41486L10.897 2.61136C10.7406 2.27236 10.2587 2.27229 10.1023 2.6113L7.88665 7.41476C7.82292 7.55292 7.69253 7.64806 7.54144 7.66598L2.28809 8.28889C1.91736 8.33285 1.76889 8.79121 2.04298 9.04468L5.92627 12.6365C6.03798 12.7398 6.08771 12.8936 6.05806 13.0428L5.02744 18.2312C4.95469 18.5974 5.34439 18.8811 5.67015 18.6987L10.286 16.1143C10.4188 16.04 10.5801 16.0403 10.7128 16.1147L15.3292 18.6981C15.6549 18.8804 16.0454 18.5974 15.9726 18.2312L14.9418 13.0431C14.9122 12.8939 14.9618 12.7398 15.0735 12.6365L18.9573 9.04455Z" stroke="white" stroke-width="1.7254" stroke-linecap="round" stroke-linejoin="round"/>
</svg>
