<svg width="21" height="21" viewBox="0 0 21 21" fill="none" xmlns="http://www.w3.org/2000/svg">
<path d="M14.2569 8.20699C14.3436 8.20699 14.4283 8.23202 14.4995 8.2793L14.5659 8.33377C14.6069 8.37441 14.6398 8.42314 14.662 8.4764C14.6842 8.52969 14.6956 8.58707 14.6956 8.64478C14.6956 8.70252 14.6842 8.75986 14.662 8.81316C14.6399 8.86614 14.6075 8.91429 14.5669 8.9548L10.813 12.6651L10.81 12.6681C10.7693 12.7091 10.7207 12.7419 10.6674 12.7642C10.6141 12.7863 10.5567 12.7978 10.499 12.7978C10.4413 12.7978 10.3839 12.7863 10.3306 12.7642C10.2775 12.742 10.2296 12.7089 10.189 12.6681L10.187 12.6671L6.47769 8.95678L6.47571 8.95579L6.42123 8.88943C6.40514 8.86554 6.39177 8.83988 6.38062 8.81316C6.35841 8.75985 6.34695 8.70254 6.34695 8.64478C6.34696 8.58706 6.35843 8.52968 6.38062 8.4764C6.40283 8.42321 6.43478 8.37437 6.47571 8.33377H6.4767C6.55862 8.25245 6.6693 8.20702 6.78474 8.20699C6.87126 8.20699 6.95532 8.23223 7.02641 8.2793L7.09376 8.33377L10.19 11.43L10.497 11.738L10.8061 11.433L13.9478 8.33476L13.9488 8.33377C14.0307 8.25243 14.1415 8.2071 14.2569 8.20699Z" fill="black" stroke="white" stroke-width="0.8627"/>
</svg>
