<svg width="21" height="21" viewBox="0 0 21 21" fill="none" xmlns="http://www.w3.org/2000/svg">
<path d="M7.87468 9.62488V17.4998M7.87468 9.62488H4.02439C3.53435 9.62488 3.28958 9.62488 3.10241 9.72025C2.93777 9.80413 2.80401 9.93789 2.72012 10.1025C2.62475 10.2897 2.62475 10.5349 2.62475 11.0249V17.4998H7.87468M7.87468 9.62488V4.90003C7.87468 4.40999 7.87468 4.16478 7.97005 3.97761C8.05394 3.81297 8.1877 3.67921 8.35234 3.59533C8.53951 3.49996 8.78428 3.49996 9.27432 3.49996H11.7243C12.2143 3.49996 12.4599 3.49996 12.647 3.59533C12.8117 3.67921 12.945 3.81297 13.0289 3.97761C13.1243 4.16478 13.1246 4.40999 13.1246 4.90003V6.99991M7.87468 17.4998H13.1246M13.1246 17.4998L18.3745 17.4999V8.39998C18.3745 7.90994 18.3742 7.66474 18.2788 7.47757C18.195 7.31293 18.0621 7.17917 17.8975 7.09528C17.7103 6.99991 17.4646 6.99991 16.9746 6.99991H13.1246M13.1246 17.4998V6.99991" stroke="white" stroke-width="1.7254" stroke-linecap="round" stroke-linejoin="round"/>
</svg>
