<svg width="21" height="21" viewBox="0 0 21 21" fill="none" xmlns="http://www.w3.org/2000/svg">
<path d="M14.8758 15.7498C14.8758 16.233 15.2675 16.6248 15.7508 16.6248C16.234 16.6248 16.6257 16.233 16.6257 15.7498C16.6257 15.2665 16.234 14.8748 15.7508 14.8748C15.2675 14.8748 14.8758 15.2665 14.8758 15.7498Z" stroke="white" stroke-width="1.7254" stroke-linecap="round" stroke-linejoin="round"/>
<path d="M9.62584 15.7498C9.62584 16.233 10.0176 16.6248 10.5008 16.6248C10.9841 16.6248 11.3758 16.233 11.3758 15.7498C11.3758 15.2665 10.9841 14.8748 10.5008 14.8748C10.0176 14.8748 9.62584 15.2665 9.62584 15.7498Z" stroke="white" stroke-width="1.7254" stroke-linecap="round" stroke-linejoin="round"/>
<path d="M4.37591 15.7498C4.37591 16.233 4.76765 16.6248 5.2509 16.6248C5.73414 16.6248 6.12588 16.233 6.12588 15.7498C6.12588 15.2665 5.73414 14.8748 5.2509 14.8748C4.76765 14.8748 4.37591 15.2665 4.37591 15.7498Z" stroke="white" stroke-width="1.7254" stroke-linecap="round" stroke-linejoin="round"/>
<path d="M14.8758 10.4998C14.8758 10.9831 15.2675 11.3748 15.7508 11.3748C16.234 11.3748 16.6257 10.9831 16.6257 10.4998C16.6257 10.0166 16.234 9.62485 15.7508 9.62485C15.2675 9.62485 14.8758 10.0166 14.8758 10.4998Z" stroke="white" stroke-width="1.7254" stroke-linecap="round" stroke-linejoin="round"/>
<path d="M9.62584 10.4998C9.62584 10.9831 10.0176 11.3748 10.5008 11.3748C10.9841 11.3748 11.3758 10.9831 11.3758 10.4998C11.3758 10.0166 10.9841 9.62485 10.5008 9.62485C10.0176 9.62485 9.62584 10.0166 9.62584 10.4998Z" stroke="white" stroke-width="1.7254" stroke-linecap="round" stroke-linejoin="round"/>
<path d="M4.37591 10.4998C4.37591 10.9831 4.76765 11.3748 5.2509 11.3748C5.73414 11.3748 6.12588 10.9831 6.12588 10.4998C6.12588 10.0166 5.73414 9.62485 5.2509 9.62485C4.76765 9.62485 4.37591 10.0166 4.37591 10.4998Z" stroke="white" stroke-width="1.7254" stroke-linecap="round" stroke-linejoin="round"/>
<path d="M14.8758 5.24991C14.8758 5.73315 15.2675 6.12489 15.7508 6.12489C16.234 6.12489 16.6257 5.73315 16.6257 5.24991C16.6257 4.76666 16.234 4.37492 15.7508 4.37492C15.2675 4.37492 14.8758 4.76666 14.8758 5.24991Z" stroke="white" stroke-width="1.7254" stroke-linecap="round" stroke-linejoin="round"/>
<path d="M9.62584 5.24991C9.62584 5.73315 10.0176 6.12489 10.5008 6.12489C10.9841 6.12489 11.3758 5.73315 11.3758 5.24991C11.3758 4.76666 10.9841 4.37492 10.5008 4.37492C10.0176 4.37492 9.62584 4.76666 9.62584 5.24991Z" stroke="white" stroke-width="1.7254" stroke-linecap="round" stroke-linejoin="round"/>
<path d="M4.37591 5.24991C4.37591 5.73315 4.76765 6.12489 5.2509 6.12489C5.73414 6.12489 6.12588 5.73315 6.12588 5.24991C6.12588 4.76666 5.73414 4.37492 5.2509 4.37492C4.76765 4.37492 4.37591 4.76666 4.37591 5.24991Z" stroke="white" stroke-width="1.7254" stroke-linecap="round" stroke-linejoin="round"/>
</svg>
