<svg width="16" height="16" viewBox="0 0 16 16" fill="none" xmlns="http://www.w3.org/2000/svg">
<g clip-path="url(#clip0_79_796)">
<path d="M8 0C12.4179 0.000193287 15.999 3.58204 15.999 8C15.9988 12.4178 12.4178 15.9988 8 15.999C3.58204 15.999 0.000193291 12.4179 0 8C0 3.58192 3.58192 0 8 0ZM11.2942 4.70482C10.9471 4.35802 10.3845 4.35805 10.0375 4.70482L7.99899 6.7433L5.96151 4.70482C5.6144 4.3577 5.05093 4.3577 4.70381 4.70482C4.35703 5.05196 4.35681 5.61552 4.70381 5.96252L6.7423 8L4.70381 10.0385C4.35738 10.3856 4.35712 10.9483 4.70381 11.2952C5.05082 11.6421 5.6144 11.6419 5.96151 11.2952L7.99899 9.2567L10.0375 11.2952C10.3845 11.642 10.9471 11.6419 11.2942 11.2952C11.6412 10.9481 11.6411 10.3856 11.2942 10.0385L9.25569 8L11.2942 5.96252C11.6413 5.61544 11.6412 5.05194 11.2942 4.70482Z" fill="white"/>
</g>
<defs>
<clipPath id="clip0_79_796">
<rect width="15.9993" height="15.9993" rx="7.7643" fill="white"/>
</clipPath>
</defs>
</svg>
