<svg width="21" height="21" viewBox="0 0 21 21" fill="none" xmlns="http://www.w3.org/2000/svg">
<path d="M8.75102 4.37495H7.17604C6.19596 4.37495 5.70556 4.37495 5.33122 4.56568C5.00194 4.73346 4.73442 5.00098 4.56664 5.33026C4.37591 5.7046 4.37591 6.195 4.37591 7.17508V13.825C4.37591 14.8051 4.37591 15.2949 4.56664 15.6692C4.73442 15.9985 5.00194 16.2665 5.33122 16.4342C5.70519 16.6248 6.195 16.6248 7.17317 16.6248H13.8285C14.8066 16.6248 15.2958 16.6248 15.6697 16.4342C15.999 16.2665 16.2674 15.9982 16.4352 15.6689C16.6257 15.295 16.6257 14.8057 16.6257 13.8275V12.2498M13.1258 3.49996H17.5007V7.8749M17.5007 3.49996L11.3758 9.62488" stroke="white" stroke-width="1.7254" stroke-linecap="round" stroke-linejoin="round"/>
</svg>
