<svg width="21" height="21" viewBox="0 0 21 21" fill="none" xmlns="http://www.w3.org/2000/svg">
<path d="M17.4996 6.99999L12.2497 2.39755C11.7684 1.96709 11.1454 1.72912 10.4997 1.72912C9.85405 1.72912 9.23102 1.96709 8.74975 2.39755L3.49982 6.99999C3.2219 7.24855 3.00012 7.55347 2.84925 7.89444C2.69837 8.23541 2.62187 8.60461 2.62484 8.97746V16.6249C2.62484 17.321 2.90139 17.9887 3.39367 18.481C3.88595 18.9733 4.55362 19.2498 5.2498 19.2498H15.7497C16.4458 19.2498 17.1135 18.9733 17.6058 18.481C18.0981 17.9887 18.3746 17.321 18.3746 16.6249V8.96871C18.3763 8.59734 18.2992 8.22982 18.1484 7.89045C17.9976 7.55108 17.7765 7.24757 17.4996 6.99999ZM12.2497 17.4998H8.74975V13.1249C8.74975 12.8928 8.84194 12.6703 9.00603 12.5062C9.17013 12.3421 9.39268 12.2499 9.62474 12.2499H11.3747C11.6068 12.2499 11.8293 12.3421 11.9934 12.5062C12.1575 12.6703 12.2497 12.8928 12.2497 13.1249V17.4998ZM16.6247 16.6249C16.6247 16.8569 16.5325 17.0795 16.3684 17.2436C16.2043 17.4077 15.9817 17.4998 15.7497 17.4998H13.9997V13.1249C13.9997 12.4287 13.7231 11.7611 13.2309 11.2688C12.7386 10.7765 12.0709 10.4999 11.3747 10.4999H9.62474C8.92856 10.4999 8.26089 10.7765 7.76861 11.2688C7.27634 11.7611 6.99978 12.4287 6.99978 13.1249V17.4998H5.2498C5.01774 17.4998 4.79518 17.4077 4.63109 17.2436C4.467 17.0795 4.37481 16.8569 4.37481 16.6249V8.96871C4.37497 8.84448 4.40158 8.7217 4.45288 8.60855C4.50417 8.4954 4.57897 8.39447 4.67231 8.31247L9.92224 3.71878C10.0819 3.5785 10.2872 3.50114 10.4997 3.50114C10.7123 3.50114 10.9175 3.5785 11.0772 3.71878L16.3272 8.31247C16.4205 8.39447 16.4953 8.4954 16.5466 8.60855C16.5979 8.7217 16.6245 8.84448 16.6247 8.96871V16.6249Z" fill="white"/>
</svg>
