<svg width="21" height="21" viewBox="0 0 21 21" fill="none" xmlns="http://www.w3.org/2000/svg">
<path d="M9.62407 7.87484H13.124C13.3561 7.87484 13.5786 7.78265 13.7427 7.61856C13.9068 7.45447 13.999 7.23191 13.999 6.99985C13.999 6.76779 13.9068 6.54523 13.7427 6.38114C13.5786 6.21705 13.3561 6.12486 13.124 6.12486H11.374V5.24987C11.374 5.01781 11.2819 4.79525 11.1178 4.63116C10.9537 4.46707 10.7311 4.37488 10.4991 4.37488C10.267 4.37488 10.0444 4.46707 9.88035 4.63116C9.71626 4.79525 9.62407 5.01781 9.62407 5.24987V6.12486C8.92789 6.12486 8.26022 6.40142 7.76794 6.8937C7.27566 7.38597 6.99911 8.05364 6.99911 8.74983C6.99911 9.44601 7.27566 10.1137 7.76794 10.606C8.26022 11.0982 8.92789 11.3748 9.62407 11.3748H11.374C11.6061 11.3748 11.8287 11.467 11.9928 11.6311C12.1569 11.7952 12.249 12.0177 12.249 12.2498C12.249 12.4818 12.1569 12.7044 11.9928 12.8685C11.8287 13.0326 11.6061 13.1248 11.374 13.1248H7.87409C7.64203 13.1248 7.41948 13.217 7.25538 13.381C7.09129 13.5451 6.99911 13.7677 6.99911 13.9998C6.99911 14.2318 7.09129 14.4544 7.25538 14.6185C7.41948 14.7826 7.64203 14.8747 7.87409 14.8747H9.62407V15.7497C9.62407 15.9818 9.71626 16.2044 9.88035 16.3684C10.0444 16.5325 10.267 16.6247 10.4991 16.6247C10.7311 16.6247 10.9537 16.5325 11.1178 16.3684C11.2819 16.2044 11.374 15.9818 11.374 15.7497V14.8747C12.0702 14.8747 12.7379 14.5982 13.2302 14.1059C13.7225 13.6136 13.999 12.946 13.999 12.2498C13.999 11.5536 13.7225 10.8859 13.2302 10.3936C12.7379 9.90137 12.0702 9.62481 11.374 9.62481H9.62407C9.39201 9.62481 9.16945 9.53263 9.00536 9.36854C8.84127 9.20444 8.74908 8.98189 8.74908 8.74983C8.74908 8.51776 8.84127 8.29521 9.00536 8.13112C9.16945 7.96702 9.39201 7.87484 9.62407 7.87484ZM16.624 1.74992H4.37414C3.67796 1.74992 3.01029 2.02648 2.51801 2.51875C2.02573 3.01103 1.74917 3.6787 1.74917 4.37488V16.6247C1.74917 17.3209 2.02573 17.9886 2.51801 18.4809C3.01029 18.9731 3.67796 19.2497 4.37414 19.2497H16.624C17.3202 19.2497 17.9878 18.9731 18.4801 18.4809C18.9724 17.9886 19.2489 17.3209 19.2489 16.6247V4.37488C19.2489 3.6787 18.9724 3.01103 18.4801 2.51875C17.9878 2.02648 17.3202 1.74992 16.624 1.74992ZM17.499 16.6247C17.499 16.8568 17.4068 17.0793 17.2427 17.2434C17.0786 17.4075 16.856 17.4997 16.624 17.4997H4.37414C4.14208 17.4997 3.91952 17.4075 3.75543 17.2434C3.59134 17.0793 3.49915 16.8568 3.49915 16.6247V4.37488C3.49915 4.14282 3.59134 3.92027 3.75543 3.75617C3.91952 3.59208 4.14208 3.49989 4.37414 3.49989H16.624C16.856 3.49989 17.0786 3.59208 17.2427 3.75617C17.4068 3.92027 17.499 4.14282 17.499 4.37488V16.6247Z" fill="white"/>
</svg>
