<svg width="24" height="24" viewBox="0 0 24 24" fill="none" xmlns="http://www.w3.org/2000/svg">
<path d="M11.9999 2C13.3132 2.00001 14.6139 2.2582 15.8271 2.76074C17.0403 3.26329 18.1427 4.00016 19.0712 4.92871C19.9997 5.85718 20.7357 6.95978 21.2382 8.17285C21.7408 9.38611 22 10.6868 22 12C22 13.9778 21.4132 15.9112 20.3144 17.5557C19.2156 19.2001 17.6543 20.4824 15.8271 21.2393C13.9998 21.9961 11.9886 22.1935 10.0488 21.8076C8.10908 21.4217 6.32712 20.4697 4.92866 19.0713C3.53021 17.6728 2.57822 15.8909 2.19233 13.9512C1.80648 12.0114 2.00382 10.0001 2.76069 8.17285C3.51757 6.34566 4.79986 4.78433 6.44429 3.68555C8.08878 2.58673 10.0221 2 11.9999 2ZM15.4248 8.5C15.1607 8.50007 14.907 8.60482 14.7197 8.79102L10.4296 13.0908L8.78022 11.4404C8.69063 11.3358 8.57996 11.2514 8.456 11.1914C8.33208 11.1314 8.19708 11.0972 8.05952 11.0918C7.9218 11.0865 7.78355 11.1099 7.65522 11.1602C7.52715 11.2104 7.41074 11.2865 7.31343 11.3838C7.21599 11.4812 7.14007 11.5983 7.08979 11.7266C7.03952 11.8549 7.01611 11.9922 7.02143 12.1299C7.02675 12.2674 7.06017 12.4024 7.12007 12.5264C7.18008 12.6504 7.26541 12.7609 7.37007 12.8506L9.71968 15.2109C9.81308 15.3036 9.92407 15.377 10.0458 15.4268C10.1676 15.4765 10.2982 15.5017 10.4296 15.501C10.6262 15.5001 10.817 15.4411 10.9785 15.334C11.0324 15.2982 11.0832 15.2571 11.1298 15.2109L16.1298 10.2109C16.2235 10.1181 16.2978 10.0074 16.3486 9.88574C16.3993 9.76394 16.4257 9.63293 16.4257 9.50098C16.4257 9.36896 16.3994 9.23807 16.3486 9.11621C16.2978 8.99441 16.2235 8.88394 16.1298 8.79102C15.9425 8.60476 15.6889 8.5 15.4248 8.5Z" fill="#65C162"/>
</svg>
