<svg width="21" height="21" viewBox="0 0 21 21" fill="none" xmlns="http://www.w3.org/2000/svg">
<path d="M13.1252 14.8748V15.7498C13.1252 17.1996 11.95 18.3748 10.5002 18.3748C9.05051 18.3748 7.87527 17.1996 7.87527 15.7498V14.8748M13.1252 14.8748H7.87527M13.1252 14.8748H16.2669C16.6016 14.8748 16.7697 14.8748 16.9052 14.8291C17.1641 14.7418 17.3667 14.5385 17.454 14.2797C17.4999 14.1436 17.4999 13.9749 17.4999 13.6376C17.4999 13.4899 17.4997 13.4161 17.4882 13.3457C17.4664 13.2127 17.4147 13.0867 17.3361 12.9772C17.2946 12.9193 17.2418 12.8665 17.1377 12.7625L16.7969 12.4216C16.6869 12.3117 16.6252 12.1625 16.6252 12.007V8.74992C16.6252 5.36721 13.8829 2.62499 10.5002 2.625C7.11754 2.62501 4.37532 5.36723 4.37532 8.74992V12.007C4.37532 12.1625 4.31341 12.3117 4.20344 12.4216L3.86263 12.7624C3.75824 12.8668 3.70599 12.9193 3.66439 12.9772C3.58578 13.0867 3.53371 13.2127 3.51188 13.3457C3.50033 13.4161 3.50033 13.4899 3.50033 13.6376C3.50033 13.9749 3.50033 14.1436 3.54623 14.2796C3.63355 14.5385 3.83702 14.7418 4.0959 14.8291C4.23144 14.8748 4.39896 14.8748 4.73367 14.8748H7.87527" stroke="white" stroke-width="1.7254" stroke-linecap="round" stroke-linejoin="round"/>
</svg>
