<svg width="32" height="28" viewBox="0 0 32 28" fill="none" xmlns="http://www.w3.org/2000/svg">
<path d="M18.6803 9.30718e-05C18.9057 -0.000665186 19.1323 0.00288173 19.3565 0.0229637C19.4795 0.0339624 19.6024 0.0400529 19.7254 0.0438456C19.7436 0.0442352 19.7629 0.0475908 19.7791 0.0547837C19.8367 0.0812896 19.8979 0.0837141 19.9601 0.0856094C20.0052 0.0868195 20.0499 0.101179 20.0953 0.106491C20.2418 0.123546 20.3884 0.139915 20.5348 0.15621H20.5448C20.6584 0.178185 20.7723 0.199864 20.8859 0.221839C20.9488 0.233962 21.0122 0.24613 21.0748 0.258631C21.1613 0.276051 21.2482 0.293154 21.3343 0.311333C21.4086 0.327262 21.4828 0.345358 21.5571 0.362046C21.6516 0.383592 21.7471 0.401978 21.8405 0.427675C21.9515 0.458395 22.0608 0.496341 22.1706 0.530095C22.2634 0.558528 22.3572 0.58481 22.45 0.613623C22.5254 0.636742 22.6002 0.662574 22.6747 0.687207C22.6835 0.6899 22.6918 0.695036 22.7006 0.696156C22.8467 0.718568 22.9816 0.776721 23.1172 0.829402C23.3333 0.912797 23.5492 0.996679 23.7606 1.08993C24.0623 1.22305 24.3607 1.3635 24.6585 1.50458C24.7857 1.56486 24.9077 1.63599 25.0314 1.70346C25.19 1.79031 25.3496 1.87519 25.5047 1.96697C25.6308 2.04165 25.7511 2.12586 25.8737 2.20661C26.0067 2.29422 26.1405 2.38199 26.2724 2.47112C26.3714 2.53822 26.4687 2.6072 26.5657 2.67695C26.6876 2.76455 26.8086 2.85371 26.9297 2.94245C26.9442 2.95326 26.9597 2.96309 26.9734 2.97427C27.1831 3.14835 27.3974 3.31839 27.6009 3.4993C27.7739 3.65346 27.9365 3.81933 28.1011 3.98257C28.2356 4.11603 28.3685 4.25201 28.4988 4.38927C28.5866 4.48219 28.6714 4.57879 28.7534 4.67664C28.9057 4.85791 29.0582 5.03972 29.2048 5.22554C29.3157 5.36576 29.4188 5.51218 29.522 5.65809C29.6233 5.80105 29.7228 5.94588 29.8183 6.09263C29.9196 6.24843 30.017 6.40651 30.1137 6.56496C30.1794 6.67299 30.2445 6.78204 30.3056 6.8931C30.3856 7.03831 30.4625 7.18552 30.5383 7.33262C30.5916 7.43654 30.6438 7.54126 30.6914 7.64784C30.773 7.83134 30.8508 8.01706 30.9301 8.2017C30.9644 8.28157 31.0037 8.35959 31.0335 8.44135C31.0841 8.58125 31.1601 8.71237 31.1876 8.86097C31.1965 8.90947 31.225 8.95445 31.2413 9.00218C31.2668 9.07531 31.288 9.15017 31.3139 9.22293C31.3367 9.28702 31.3649 9.35013 31.3885 9.41385C31.405 9.45845 31.4199 9.50335 31.4322 9.54908C31.4523 9.62341 31.4638 9.70076 31.4909 9.77282C31.5152 9.83765 31.534 9.90183 31.5456 9.9697C31.563 10.0725 31.5987 10.172 31.6211 10.274C31.6389 10.3542 31.6625 10.4338 31.6768 10.5156C31.6826 10.5478 31.6914 10.5802 31.6987 10.6121C31.7068 10.6472 31.7133 10.6827 31.7226 10.7175C31.7257 10.7288 31.7367 10.7393 31.7375 10.7503C31.7418 10.8435 31.7652 10.9328 31.7872 11.0237C31.8173 11.1484 31.8162 11.2801 31.829 11.4086C31.8301 11.4206 31.8303 11.4338 31.8349 11.4444C31.8743 11.533 31.8709 11.6267 31.8747 11.7198C31.8766 11.7675 31.8902 11.8147 31.8976 11.862C31.9061 11.9181 31.9154 11.9745 31.9204 12.031C31.9309 12.1482 31.9405 12.2655 31.9463 12.3831C31.9571 12.6005 31.9513 12.8198 31.9771 13.0354C31.9999 13.2261 32.0079 14.0783 31.992 14.2664C31.9666 14.5647 31.9777 14.8645 31.9413 15.1613C31.9278 15.2727 31.9247 15.3835 31.9204 15.4945C31.9197 15.5122 31.9211 15.533 31.9135 15.5481C31.8726 15.63 31.8736 15.7172 31.8717 15.8047C31.8706 15.855 31.856 15.9049 31.8479 15.9548C31.8409 15.9994 31.8359 16.0445 31.829 16.0891C31.8205 16.1425 31.8096 16.1957 31.8011 16.2492C31.7969 16.2761 31.7928 16.3034 31.7932 16.3307C31.7939 16.3856 31.7938 16.4398 31.7613 16.4878C31.7563 16.4954 31.7496 16.5048 31.7504 16.5127C31.7634 16.6236 31.7159 16.7253 31.6957 16.8309C31.6756 16.936 31.674 17.0451 31.6311 17.1471C31.6014 17.2179 31.5899 17.2965 31.5714 17.3718C31.5478 17.4667 31.5402 17.5651 31.4988 17.6572C31.4676 17.727 31.4613 17.8079 31.4412 17.8829C31.4218 17.9549 31.3993 18.0265 31.3765 18.0977C31.3576 18.1567 31.3352 18.2148 31.3159 18.2737C31.2896 18.3534 31.2641 18.4337 31.2393 18.5134C31.2085 18.6125 31.1819 18.7131 31.1468 18.8107C31.1012 18.9374 31.0495 19.0624 30.9997 19.1876C30.9703 19.2622 30.9413 19.3371 30.9092 19.4103C30.8512 19.5423 30.7931 19.6746 30.7312 19.8051C30.6403 19.9976 30.5519 20.1922 30.4518 20.3798C30.3459 20.5779 30.2276 20.7696 30.1137 20.9635C30.0274 21.1095 29.9451 21.2585 29.8492 21.3981C29.7142 21.5949 29.5895 21.7985 29.4375 21.9847C29.3308 22.1152 29.2452 22.2622 29.1432 22.3964C29.0535 22.5151 28.955 22.6274 28.8588 22.7415C28.7605 22.8579 28.6626 22.9749 28.5605 23.0875C28.4666 23.1913 28.3686 23.2923 28.2681 23.3908C28.0234 23.6304 27.7831 23.8747 27.5283 24.1038C27.3032 24.3058 27.0612 24.4899 26.8273 24.6825C26.5624 24.9005 26.2849 25.1018 25.995 25.2861C25.809 25.4043 25.6286 25.5308 25.4411 25.646C25.2509 25.7632 25.056 25.8741 24.8604 25.9821C24.6895 26.0766 24.5157 26.1667 24.3393 26.2516C24.155 26.3403 23.9677 26.4231 23.7795 26.5042C23.5892 26.5861 23.3927 26.6566 23.2047 26.7438C23.0498 26.8154 22.8882 26.8683 22.7274 26.9228C22.5751 26.974 22.416 27.008 22.2621 27.0551C22.1114 27.1009 21.9637 27.1567 21.8126 27.2022C21.7318 27.2269 21.6464 27.2386 21.564 27.2579C21.4778 27.278 21.3921 27.303 21.3055 27.3216C21.21 27.3416 21.1126 27.3553 21.0171 27.3743C20.9302 27.3913 20.8441 27.413 20.7576 27.4319C20.731 27.438 20.704 27.4464 20.677 27.4468C20.6117 27.448 20.5473 27.4513 20.4881 27.4846C20.4731 27.4929 20.4521 27.4951 20.4344 27.4936C20.3342 27.4852 20.2388 27.5141 20.1421 27.5304C20.1359 27.5315 20.1299 27.535 20.1242 27.5353C19.9866 27.5478 19.8491 27.5593 19.7115 27.5721C19.6659 27.5763 19.6199 27.5843 19.5743 27.59C19.5074 27.5988 19.4403 27.6081 19.3734 27.6149C19.2209 27.6304 19.0679 27.645 18.915 27.6586C18.8752 27.6621 18.8339 27.6613 18.7937 27.6616C14.283 27.6825 9.77193 27.7028 5.26124 27.7233C3.70196 27.7305 2.14259 27.7386 0.583698 27.7462C0.406947 27.7469 0.25701 27.6777 0.140207 27.5552C0.0549603 27.4655 0.00111036 27.3599 0.000994376 27.2241C0.00370172 22.9031 0.00298313 18.5818 0.00298313 14.2604C0.00298318 9.93952 0.00425431 4.95738 0 0.636493C0.000173662 0.34426 0.282282 0.0823759 0.552873 0.0826262C1.15308 0.0833847 1.75348 0.074723 2.35369 0.0716881C6.51488 0.0527248 10.6769 0.0345871 14.8381 0.0160031C16.1188 0.010694 17.3996 0.00350654 18.6803 9.30718e-05ZM12.2358 4.53047C10.2374 4.53957 8.23811 4.54883 6.23971 4.55831C5.96754 4.55983 5.69549 4.56408 5.42332 4.56825C5.39904 4.56825 5.37231 4.56915 5.35073 4.5782C5.20192 4.64188 5.09143 4.72894 5.08126 4.9312C5.07662 5.02488 5.07828 5.11993 5.07828 5.2136V14.2157L5.07927 14.2147V21.9281C5.07927 22.2371 5.07993 22.5468 5.08225 22.8558C5.08225 22.8881 5.08822 22.9238 5.10214 22.9523C5.18376 23.1148 5.31565 23.2082 5.50387 23.2078C6.37938 23.2059 7.2545 23.2027 8.13001 23.1989C11.3753 23.1837 14.621 23.1672 17.8659 23.1531C18.3138 23.1512 18.7618 23.153 19.2054 23.0776C19.2202 23.075 19.2359 23.076 19.2511 23.0746C19.3702 23.0609 19.49 23.0472 19.6091 23.0328C19.6209 23.0313 19.632 23.0246 19.6439 23.0219C19.7428 23.0014 19.8423 22.9817 19.9412 22.9612C20.082 22.9316 20.2242 22.9049 20.3638 22.8707C20.4765 22.8431 20.5873 22.8078 20.6989 22.7753C20.8366 22.7351 20.9755 22.6967 21.1116 22.652C21.2392 22.6099 21.3653 22.5626 21.4895 22.5118C21.6476 22.4469 21.8048 22.3796 21.9598 22.3079C22.2831 22.1585 22.5964 21.9892 22.8965 21.7988C23.1114 21.6623 23.3246 21.5229 23.5299 21.3732C23.7032 21.2469 23.8701 21.1102 24.0291 20.9665C24.256 20.761 24.4774 20.5497 24.6923 20.3321C24.8273 20.1956 24.9486 20.0445 25.0712 19.8966C25.1915 19.7509 25.3116 19.6046 25.4202 19.4511C25.5618 19.2504 25.6983 19.0449 25.8259 18.8356C25.9454 18.6399 26.0553 18.4379 26.16 18.234C26.2551 18.0494 26.3407 17.86 26.4245 17.6701C26.4744 17.5575 26.5133 17.4397 26.5558 17.3241C26.5914 17.2285 26.6271 17.1328 26.6592 17.0357C26.6913 16.9387 26.7209 16.8406 26.7487 16.7424C26.77 16.6674 26.7871 16.5915 26.8064 16.5157C26.8195 16.4633 26.8324 16.4103 26.8452 16.3576C26.8676 16.2674 26.894 16.178 26.9118 16.0871C26.9326 15.981 26.9449 15.8724 26.9635 15.7659C26.9847 15.6414 27.0165 15.5183 27.0281 15.393C27.0389 15.2729 27.05 15.1526 27.0619 15.0321C27.0836 14.8125 27.0897 14.5905 27.0997 14.3698C27.1129 14.0818 27.094 13.1339 27.0759 12.8464C27.0705 12.759 27.0754 12.6695 27.0599 12.5839C27.029 12.4141 27.0453 12.2386 26.9923 12.0718C26.9897 12.0635 26.9919 12.0536 26.9903 12.045C26.9811 11.9855 26.9712 11.9265 26.9615 11.867C26.9453 11.7687 26.93 11.6701 26.9118 11.5726C26.8948 11.4813 26.8773 11.3897 26.8561 11.2992C26.8383 11.2235 26.814 11.1491 26.7954 11.0735C26.7769 10.9976 26.7662 10.9195 26.7437 10.8448C26.7113 10.736 26.672 10.6292 26.6353 10.5216C26.5785 10.3539 26.5242 10.1852 26.4623 10.0194C26.4113 9.88157 26.3558 9.74504 26.2933 9.61173C26.1962 9.40398 26.0976 9.19629 25.989 8.99422C25.883 8.79742 25.769 8.60395 25.6479 8.41549C25.5334 8.23686 25.41 8.06236 25.282 7.89245C25.1525 7.71998 25.0182 7.54993 24.8763 7.38731C24.756 7.24926 24.6228 7.12187 24.4925 6.99254C24.055 6.55678 23.5733 6.17375 23.0496 5.84304C22.6946 5.61891 22.3213 5.42622 21.9349 5.25935C21.7357 5.17325 21.5334 5.09257 21.3304 5.01672C21.2048 4.96979 21.0747 4.93479 20.9465 4.8954C20.856 4.86772 20.7649 4.84065 20.6741 4.81486C20.5623 4.78301 20.4509 4.75106 20.338 4.72338C20.2579 4.70403 20.1756 4.69181 20.0943 4.67664C20.028 4.66417 19.9618 4.65208 19.8955 4.63886C19.7934 4.61875 19.6911 4.59323 19.5882 4.57919C19.4602 4.56176 19.3307 4.55406 19.2024 4.54041C19.126 4.53243 19.0501 4.51387 18.9737 4.51158C18.7726 4.50551 18.5708 4.50386 18.3701 4.50461C16.3255 4.51296 14.2804 4.52137 12.2358 4.53047ZM17.4702 7.69358C17.6585 7.69282 17.8486 7.69346 18.035 7.71545C18.3129 7.74844 18.5906 7.78388 18.8643 7.8487C19.3953 7.97384 19.9025 8.15794 20.3867 8.40555C20.8442 8.63917 21.2699 8.91897 21.6535 9.25574C22.207 9.74196 22.6554 10.3106 22.981 10.9671C23.1928 11.3943 23.3625 11.836 23.4603 12.3035C23.5291 12.6329 23.5623 12.9648 23.5836 13.2999C23.601 13.5733 23.5847 14.5062 23.5538 14.7765C23.4888 15.3454 23.3484 15.8985 23.1202 16.4272C22.918 16.8954 22.6511 17.3264 22.3317 17.7268C22.027 18.1083 21.672 18.4398 21.2826 18.7371C21.0017 18.9519 20.7032 19.1395 20.3907 19.3059C20.0174 19.5039 19.6283 19.666 19.2203 19.7832C18.9837 19.8511 18.7451 19.9117 18.5023 19.9522C18.342 19.9791 18.1796 19.9957 18.0181 20.0169C17.5134 20.0836 17.005 20.0546 16.4987 20.0576C14.1322 20.0717 11.0991 20.0812 8.73261 20.0915C8.68426 20.0915 8.63384 20.0848 8.58743 20.0716C8.49236 20.0447 8.42009 19.9463 8.42037 19.8379C8.42385 18.6311 8.42236 17.4238 8.42236 16.2174V8.01575C8.42243 7.82486 8.51495 7.73161 8.71073 7.73037C10.0594 7.72354 11.4092 7.71693 12.7578 7.71048C14.1064 7.70441 16.1217 7.69775 17.4702 7.69358ZM15.3323 11.9028H12.9488C12.7814 11.9028 12.7737 11.9102 12.7737 12.0698V15.6854C12.7768 15.7555 12.7969 15.7754 12.8692 15.7818C12.8907 15.7837 12.9123 15.7828 12.9338 15.7828C13.9793 15.7787 15.6909 15.7737 16.7363 15.7699C16.9908 15.7691 17.2425 15.7438 17.4901 15.6854C17.9279 15.5822 18.3212 15.3977 18.6445 15.0818C19.1514 14.5865 19.1645 13.2041 18.7669 12.6903C18.5909 12.4632 18.3658 12.2964 18.1076 12.1713C17.707 11.9771 17.2802 11.8902 16.8348 11.8898C16.334 11.8895 15.833 11.8898 15.3323 11.8898V11.9028Z" fill="url(#paint0_linear_30_308)"/>
<defs>
<linearGradient id="paint0_linear_30_308" x1="28.0912" y1="3.56163" x2="-0.108065" y2="27.6359" gradientUnits="userSpaceOnUse">
<stop stop-color="#FF34BF"/>
<stop offset="1" stop-color="#638BFE"/>
</linearGradient>
</defs>
</svg>
