<svg width="162" height="32" viewBox="0 0 162 32" fill="none" xmlns="http://www.w3.org/2000/svg">
<g clip-path="url(#clip0_4654_4023)">
<path d="M18.3457 9.14046e-05C18.5671 -0.00065327 18.7895 0.00283011 19.0098 0.0225523C19.1306 0.033354 19.2513 0.0393354 19.3721 0.0430602C19.3899 0.0434428 19.4089 0.0467383 19.4248 0.0538023C19.4814 0.0798334 19.5414 0.0822145 19.6025 0.0840758C19.6468 0.0852642 19.6907 0.0993663 19.7354 0.104584C19.8792 0.121333 20.0231 0.137408 20.167 0.153412H20.1768C20.2883 0.174993 20.4002 0.196284 20.5117 0.217865C20.5736 0.22977 20.6358 0.241721 20.6973 0.253998C20.7822 0.271106 20.8676 0.287902 20.9521 0.305755C21.0251 0.321399 21.098 0.339171 21.1709 0.35556C21.2637 0.37672 21.3576 0.394777 21.4492 0.420013C21.5582 0.450184 21.6656 0.487449 21.7734 0.520599C21.8646 0.548522 21.9567 0.574334 22.0479 0.60263C22.1219 0.625336 22.1953 0.650705 22.2686 0.674896C22.2771 0.677541 22.2853 0.682585 22.2939 0.683685C22.4374 0.705695 22.5699 0.762807 22.7031 0.814545C22.9153 0.896446 23.1273 0.978825 23.335 1.0704C23.6312 1.20114 23.9243 1.33907 24.2168 1.47763C24.3417 1.53683 24.4615 1.60668 24.583 1.67294C24.7387 1.75824 24.8955 1.84159 25.0479 1.93173C25.1716 2.00508 25.2898 2.08778 25.4102 2.16708C25.5408 2.25312 25.6722 2.33932 25.8018 2.42685C25.8989 2.49275 25.9946 2.5605 26.0898 2.629C26.2095 2.71503 26.3284 2.80259 26.4473 2.88974C26.4615 2.90036 26.4767 2.91001 26.4902 2.92099C26.6961 3.09195 26.9067 3.25895 27.1064 3.43661C27.2764 3.58801 27.4361 3.75091 27.5977 3.91122C27.7298 4.0423 27.8603 4.17584 27.9883 4.31064C28.0745 4.40189 28.1578 4.49677 28.2383 4.59286C28.3879 4.77089 28.5377 4.94943 28.6816 5.13193C28.7906 5.26964 28.8918 5.41344 28.9932 5.55673C29.0927 5.69713 29.1904 5.83937 29.2842 5.98349C29.3836 6.1365 29.4793 6.29175 29.5742 6.44736C29.6388 6.55345 29.7027 6.66055 29.7627 6.76962C29.8413 6.91223 29.9168 7.0568 29.9912 7.20126C30.0436 7.30332 30.0949 7.40617 30.1416 7.51083C30.2217 7.69105 30.2981 7.87345 30.376 8.05478C30.4097 8.13322 30.4483 8.20984 30.4775 8.29013C30.5273 8.42753 30.6019 8.55629 30.6289 8.70224C30.6376 8.74986 30.6657 8.79404 30.6816 8.84091C30.7067 8.91274 30.7275 8.98625 30.7529 9.05771C30.7753 9.12066 30.803 9.18263 30.8262 9.24521C30.8424 9.28901 30.857 9.33311 30.8691 9.37802C30.8889 9.45102 30.9002 9.52698 30.9268 9.59775C30.9507 9.66142 30.9691 9.72445 30.9805 9.79111C30.9976 9.89205 31.0327 9.98974 31.0547 10.0899C31.0721 10.1688 31.0953 10.2469 31.1094 10.3272C31.1151 10.3589 31.1237 10.3907 31.1309 10.422C31.1388 10.4565 31.1452 10.4913 31.1543 10.5255C31.1574 10.5366 31.1682 10.5469 31.1689 10.5577C31.1732 10.6492 31.1962 10.737 31.2178 10.8263C31.2473 10.9487 31.2463 11.0781 31.2588 11.2042C31.2599 11.216 31.2601 11.229 31.2646 11.2393C31.3033 11.3264 31.2999 11.4184 31.3037 11.5099C31.3056 11.5567 31.3189 11.603 31.3262 11.6495C31.3345 11.7046 31.3437 11.76 31.3486 11.8155C31.3589 11.9306 31.3683 12.0458 31.374 12.1612C31.3846 12.3748 31.3789 12.5902 31.4043 12.8018C31.4267 12.9892 31.4345 13.8261 31.4189 14.0108C31.3939 14.3038 31.4048 14.5983 31.3691 14.8897C31.3559 14.9991 31.3528 15.1079 31.3486 15.2169C31.3479 15.2343 31.3493 15.2547 31.3418 15.2696C31.3016 15.35 31.3027 15.4357 31.3008 15.5216C31.2996 15.571 31.2853 15.62 31.2773 15.669C31.2705 15.7128 31.2656 15.7571 31.2588 15.8009C31.2504 15.8534 31.2398 15.9056 31.2314 15.9581C31.2273 15.9845 31.2233 16.0114 31.2236 16.0382C31.2244 16.0921 31.2242 16.1453 31.1924 16.1925C31.1874 16.1999 31.1809 16.2091 31.1816 16.2169C31.1944 16.3258 31.1477 16.4257 31.1279 16.5294C31.1082 16.6326 31.1066 16.7397 31.0645 16.8399C31.0353 16.9095 31.024 16.9866 31.0059 17.0606C30.9827 17.1538 30.9752 17.2504 30.9346 17.3409C30.9039 17.4094 30.8977 17.4889 30.8779 17.5626C30.859 17.6333 30.8368 17.7036 30.8145 17.7735C30.7959 17.8314 30.7738 17.8885 30.7549 17.9464C30.7291 18.0246 30.704 18.1035 30.6797 18.1817C30.6494 18.2791 30.6233 18.3779 30.5889 18.4737C30.544 18.5981 30.4933 18.7209 30.4443 18.8438C30.4155 18.9172 30.387 18.9907 30.3555 19.0626C30.2985 19.1922 30.2414 19.3222 30.1807 19.4503C30.0915 19.6394 30.0046 19.8305 29.9062 20.0147C29.8023 20.2093 29.6861 20.3975 29.5742 20.588C29.4895 20.7314 29.4086 20.8777 29.3145 21.0147C29.1819 21.2081 29.0594 21.408 28.9102 21.5909C28.8054 21.719 28.7213 21.8634 28.6211 21.9952C28.533 22.1117 28.4363 22.222 28.3418 22.3341C28.2453 22.4484 28.1491 22.5633 28.0488 22.6739C27.9566 22.7759 27.8604 22.875 27.7617 22.9718C27.5214 23.2071 27.2854 23.4471 27.0352 23.672C26.8141 23.8704 26.5764 24.0512 26.3467 24.2403C26.0866 24.4544 25.814 24.6522 25.5293 24.8331C25.3467 24.9493 25.1695 25.0734 24.9854 25.1866C24.7986 25.3016 24.6071 25.4106 24.415 25.5167C24.2472 25.6094 24.0765 25.6979 23.9033 25.7813C23.7223 25.8684 23.5384 25.9497 23.3535 26.0294C23.1666 26.1098 22.9737 26.1791 22.7891 26.2647C22.6369 26.3351 22.4782 26.3869 22.3203 26.4405C22.1707 26.4908 22.0145 26.5242 21.8633 26.5704C21.7153 26.6154 21.5702 26.6703 21.4219 26.7149C21.3425 26.7391 21.2586 26.7506 21.1777 26.7696C21.0931 26.7894 21.0089 26.8139 20.9238 26.8321C20.8301 26.8518 20.7344 26.8653 20.6406 26.8839C20.5553 26.9006 20.4707 26.9219 20.3857 26.9405C20.3597 26.9465 20.3331 26.9547 20.3066 26.9552C20.2424 26.9563 20.1792 26.9595 20.1211 26.9923C20.1063 27.0004 20.0858 27.0025 20.0684 27.0011C19.97 26.9929 19.8762 27.0212 19.7812 27.0372C19.7752 27.0383 19.7693 27.0417 19.7637 27.0421C19.6286 27.0544 19.4935 27.0656 19.3584 27.0782C19.3136 27.0823 19.2685 27.0902 19.2236 27.0958C19.158 27.1044 19.092 27.1135 19.0264 27.1202C18.8765 27.1355 18.7264 27.1498 18.5762 27.1632C18.537 27.1665 18.4965 27.1657 18.457 27.1661C14.0271 27.1866 9.59688 27.2065 5.16699 27.2267C3.63565 27.2337 2.10421 27.2417 0.573242 27.2491C0.399657 27.2499 0.252406 27.1819 0.137695 27.0616C0.0539758 26.9735 0.00109047 26.8698 0.000976562 26.7364C0.00363541 22.4928 0.00292969 18.2489 0.00292969 14.005C0.00292974 9.76146 0.0041781 4.86858 0 0.625091C0.000170552 0.338093 0.277226 0.0809002 0.542969 0.0811461C1.13242 0.081891 1.72207 0.0733845 2.31152 0.0704039C6.39817 0.0517803 10.4856 0.0339676 14.5723 0.0157164C15.8301 0.0105024 17.0879 0.00344372 18.3457 9.14046e-05ZM12.0166 4.44931C10.054 4.45825 8.09054 4.46734 6.12793 4.47665C5.86064 4.47815 5.59346 4.48232 5.32617 4.48642C5.30232 4.48642 5.27607 4.48729 5.25488 4.49619C5.10874 4.55872 5.00022 4.64423 4.99023 4.84286C4.98568 4.93487 4.9873 5.02821 4.9873 5.12021V13.961L4.98828 13.9601V21.5352C4.98828 21.8387 4.98893 22.1429 4.99121 22.4464C4.99121 22.478 4.99707 22.5132 5.01074 22.5411C5.0909 22.7007 5.22043 22.7925 5.40527 22.7921C6.2651 22.7902 7.12455 22.787 7.98438 22.7833C11.1716 22.7684 14.3591 22.7522 17.5459 22.7384C17.9857 22.7365 18.4257 22.7383 18.8613 22.6642C18.8759 22.6616 18.8913 22.6626 18.9062 22.6612C19.0232 22.6478 19.1408 22.6344 19.2578 22.6202C19.2695 22.6187 19.2804 22.6121 19.292 22.6095C19.3891 22.5894 19.4868 22.57 19.584 22.5499C19.7222 22.5208 19.8619 22.4946 19.999 22.461C20.1097 22.4339 20.2186 22.3993 20.3281 22.3673C20.4633 22.3278 20.5997 22.2901 20.7334 22.2462C20.8587 22.2048 20.9826 22.1584 21.1045 22.1085C21.2598 22.0448 21.4142 21.9787 21.5664 21.9083C21.8839 21.7615 22.1916 21.5953 22.4863 21.4083C22.6974 21.2743 22.9068 21.1374 23.1084 20.9903C23.2785 20.8663 23.4425 20.7321 23.5986 20.5909C23.8215 20.3891 24.0389 20.1815 24.25 19.9679C24.3826 19.8338 24.5017 19.6854 24.6221 19.5401C24.7402 19.3971 24.8581 19.2535 24.9648 19.1026C25.1039 18.9056 25.2379 18.7037 25.3633 18.4981C25.4806 18.306 25.5885 18.1076 25.6914 17.9073C25.7847 17.7261 25.8688 17.54 25.9512 17.3536C26.0002 17.243 26.0383 17.1273 26.0801 17.0138C26.115 16.9199 26.1501 16.8259 26.1816 16.7306C26.2132 16.6352 26.2422 16.5389 26.2695 16.4425C26.2904 16.3688 26.3072 16.2943 26.3262 16.2198C26.3391 16.1684 26.3517 16.1163 26.3643 16.0645C26.3863 15.976 26.4122 15.8882 26.4297 15.7989C26.4502 15.6947 26.4622 15.5881 26.4805 15.4835C26.5013 15.3612 26.5325 15.2403 26.5439 15.1173C26.5546 14.9993 26.5654 14.8811 26.5771 14.7628C26.5984 14.5471 26.6044 14.3292 26.6143 14.1124C26.6272 13.8295 26.6087 12.8986 26.5908 12.6163C26.5855 12.5304 26.5904 12.4425 26.5752 12.3585C26.5449 12.1917 26.5608 12.0194 26.5088 11.8556C26.5063 11.8474 26.5083 11.8377 26.5068 11.8292C26.4977 11.7708 26.488 11.7128 26.4785 11.6544C26.4626 11.5579 26.4475 11.4611 26.4297 11.3653C26.413 11.2757 26.3959 11.1857 26.375 11.0968C26.3576 11.0224 26.3336 10.9494 26.3154 10.8751C26.2972 10.8006 26.2867 10.7239 26.2646 10.6505C26.2328 10.5437 26.1942 10.4387 26.1582 10.3331C26.1024 10.1685 26.0491 10.0027 25.9883 9.83994C25.9382 9.70455 25.8837 9.57047 25.8223 9.43954C25.727 9.23552 25.6301 9.03155 25.5234 8.8331C25.4194 8.63982 25.3073 8.44982 25.1885 8.26474C25.076 8.08931 24.9548 7.91794 24.8291 7.75107C24.7019 7.58168 24.57 7.41468 24.4307 7.25497C24.3125 7.1194 24.1817 6.99429 24.0537 6.86728C23.6241 6.43932 23.151 6.06316 22.6367 5.73837C22.288 5.51826 21.9214 5.32901 21.542 5.16513C21.3464 5.08058 21.1477 5.00134 20.9482 4.92685C20.825 4.88076 20.6972 4.84639 20.5713 4.80771C20.4824 4.78052 20.393 4.75393 20.3037 4.72861C20.194 4.69733 20.0845 4.66595 19.9736 4.63876C19.895 4.61977 19.8141 4.60776 19.7344 4.59286C19.6692 4.58061 19.6042 4.56875 19.5391 4.55576C19.4388 4.53601 19.3383 4.51094 19.2373 4.49716C19.1116 4.48004 18.9844 4.47248 18.8584 4.45908C18.7834 4.45124 18.7088 4.43301 18.6338 4.43076C18.4363 4.4248 18.2381 4.42317 18.041 4.42392C16.033 4.43211 14.0246 4.44037 12.0166 4.44931ZM17.1572 7.55576C17.3422 7.55501 17.5288 7.55564 17.7119 7.57724C17.9849 7.60963 18.2576 7.64444 18.5264 7.7081C19.0478 7.831 19.546 8.0118 20.0215 8.25497C20.4708 8.48441 20.8888 8.7592 21.2656 9.08994C21.8092 9.56744 22.2495 10.1258 22.5693 10.7706C22.7774 11.1902 22.944 11.624 23.04 12.0831C23.1076 12.4066 23.1402 12.7325 23.1611 13.0616C23.1782 13.3301 23.1622 14.2464 23.1318 14.5118C23.068 15.0705 22.9302 15.6137 22.7061 16.1329C22.5074 16.5928 22.2453 17.016 21.9316 17.4093C21.6324 17.7839 21.2838 18.1095 20.9014 18.4015C20.6255 18.6124 20.3324 18.7967 20.0254 18.9601C19.6588 19.1545 19.2767 19.3137 18.876 19.4288C18.6436 19.4954 18.4093 19.555 18.1709 19.5948C18.0134 19.6212 17.854 19.6375 17.6953 19.6583C17.1996 19.7239 16.7003 19.6954 16.2031 19.6983C13.879 19.7121 10.9003 19.7215 8.57617 19.7315C8.52869 19.7315 8.47917 19.725 8.43359 19.712C8.34023 19.6856 8.26926 19.5889 8.26953 19.4825C8.27295 18.2973 8.27148 17.1117 8.27148 15.9268V7.87216C8.27155 7.68469 8.36241 7.59311 8.55469 7.59189C9.87917 7.58518 11.2048 7.57869 12.5293 7.57236C13.8537 7.5664 15.8329 7.55985 17.1572 7.55576ZM15.0576 11.6895H12.7168C12.5524 11.6895 12.5449 11.6968 12.5449 11.8536V15.4044C12.548 15.4733 12.5676 15.4928 12.6387 15.4991C12.6598 15.5009 12.681 15.5001 12.7021 15.5001C13.7289 15.496 15.4099 15.4911 16.4365 15.4874C16.6864 15.4867 16.9337 15.4617 17.1768 15.4044C17.6067 15.3031 17.993 15.1219 18.3105 14.8116C18.8083 14.3252 18.8212 12.9676 18.4307 12.463C18.2579 12.24 18.0368 12.0761 17.7832 11.9532C17.3898 11.7625 16.9707 11.6772 16.5332 11.6768C16.0414 11.6765 15.5494 11.6768 15.0576 11.6768V11.6895Z" fill="url(#paint0_linear_4654_4023)"/>
<path d="M54.759 14.8449L54.2186 14.9084C54.0703 14.9296 53.9431 14.972 53.8371 15.0356C53.7312 15.0992 53.6252 15.131 53.5192 15.131C53.4345 15.131 53.3709 15.1415 53.3285 15.1627C53.3073 15.1627 53.2755 15.1627 53.2332 15.1627C53.0424 15.2051 52.8623 15.2793 52.6927 15.3853C52.6504 15.3853 52.6186 15.3853 52.5974 15.3853C52.5762 15.3853 52.5444 15.3641 52.502 15.3217L52.3113 15.3853C52.0358 15.4065 51.8344 15.4806 51.7073 15.6078C51.5378 15.5442 51.4106 15.5336 51.3258 15.576C51.2411 15.6184 51.1669 15.6608 51.1033 15.7031C51.0609 15.7455 51.0291 15.7667 51.0079 15.7667C50.9867 15.7455 50.9762 15.7561 50.9762 15.7985C50.9338 15.7985 50.8914 15.8091 50.849 15.8303C50.8278 15.8303 50.7748 15.8303 50.6901 15.8303C50.6477 15.8091 50.5735 15.8409 50.4675 15.9257C50.4251 15.9681 50.3828 15.9892 50.3404 15.9892C50.3192 15.9892 50.298 15.9998 50.2768 16.021C50.2768 16.021 50.2662 16.021 50.245 16.021H50.1814C50.2026 15.9998 50.1814 16.0422 50.1179 16.1482C50.0755 16.2542 50.0331 16.3601 49.9907 16.4661L49.8635 16.5614L49.6092 17.0065C49.5457 17.0701 49.5139 17.1442 49.5139 17.229L49.2914 17.4833L48.9735 18.437L48.6556 19.1681C48.6132 19.2741 48.5602 19.3906 48.4966 19.5178C48.4331 19.6238 48.3801 19.7615 48.3377 19.931C48.2953 19.9734 48.2423 20.0688 48.1787 20.2171C48.1152 20.3443 48.0516 20.4926 47.988 20.6622C47.9456 20.8105 47.9032 20.9589 47.8609 21.1072C47.8185 21.2344 47.7867 21.3297 47.7655 21.3933C47.6807 21.4569 47.6066 21.5417 47.543 21.6476C47.5006 21.7536 47.4582 21.849 47.4158 21.9337L47.384 22.2516L46.8436 23.0781L46.7483 23.4596L46.6211 23.8093L46.335 24.0954C46.3138 24.1166 46.282 24.1483 46.2396 24.1907C46.2184 24.2543 46.1761 24.3709 46.1125 24.5404C46.1125 24.6252 46.0701 24.657 45.9853 24.6358L45.7946 24.9219C45.6886 25.1974 45.5827 25.4517 45.4767 25.6848C45.3919 25.9391 45.2754 26.2782 45.127 26.702C44.9575 26.4265 44.8833 26.257 44.9045 26.1934C44.9257 26.1298 44.9469 26.0557 44.9681 25.9709C45.0105 25.9073 45.0317 25.7696 45.0317 25.5576H44.9681L44.8409 25.9391C44.7985 26.0027 44.7562 26.0769 44.7138 26.1616C44.6714 26.2464 44.6396 26.3524 44.6184 26.4795L44.3641 26.5113C44.3429 26.4689 44.3217 26.4371 44.3005 26.4159C44.3005 26.3947 44.3005 26.3524 44.3005 26.2888C44.2581 26.2888 44.2369 26.3312 44.2369 26.4159C44.1946 26.5219 44.1416 26.5855 44.078 26.6067C43.7177 26.6067 43.474 26.5537 43.3469 26.4477H43.3151C43.3151 26.4901 43.2833 26.5113 43.2197 26.5113C43.1561 26.5325 43.1137 26.5431 43.0926 26.5431C43.0926 26.5855 43.0714 26.6279 43.029 26.6703C43.0078 26.6914 43.0078 26.7444 43.029 26.8292C42.923 26.9775 42.8488 27.0411 42.8065 27.0199C42.7429 27.0199 42.6051 26.9987 42.3932 26.9563H42.1707C41.9588 26.9563 41.7892 26.9458 41.6621 26.9246C41.5137 26.9246 41.4184 26.808 41.376 26.5749C41.27 26.3206 41.2382 26.0133 41.2806 25.653C41.3018 25.2927 41.3548 24.9643 41.4395 24.6676C41.5031 24.3709 41.5879 24.053 41.6939 23.7139C41.7786 23.3748 41.9164 23.0357 42.1071 22.6967C42.2766 22.2304 42.4674 21.7748 42.6793 21.3297C42.87 20.8635 42.9972 20.4715 43.0608 20.1536C43.2303 19.8145 43.3681 19.4648 43.474 19.1045C43.5588 18.7231 43.6965 18.3628 43.8873 18.0237C44.0568 17.5787 44.3005 17.0277 44.6184 16.3707C44.9363 15.7137 45.2754 15.0038 45.6357 14.2409C45.9323 13.5839 46.2502 12.9587 46.5893 12.3653C46.9496 11.7508 47.2993 11.1362 47.6383 10.5216L49.3549 7.59703L49.2914 7.46988C49.1854 7.42749 49.0582 7.33213 48.9099 7.18378C48.7827 7.03543 48.7403 7.02483 48.7827 7.15199C48.698 7.08841 48.6238 7.00364 48.5602 6.89768C48.4966 6.77052 48.4119 6.65397 48.3059 6.548C48.3271 6.59039 48.1999 6.52681 47.9244 6.35727C47.8397 6.12415 47.6913 5.96521 47.4794 5.88044C47.2039 5.73209 47.0132 5.53077 46.9072 5.27646C46.9708 5.23407 47.0132 5.1493 47.0344 5.02215C47.0767 4.8738 47.1191 4.74664 47.1615 4.64068C47.3734 4.34399 47.5854 4.11087 47.7973 3.94133C48.0304 3.7506 48.3589 3.61285 48.7827 3.52808C49.1218 3.48569 49.4715 3.40092 49.8318 3.27377C50.2132 3.12542 50.5841 2.99827 50.9444 2.8923C51.1351 2.82873 51.3788 2.76515 51.6755 2.70157C51.9722 2.6168 52.2689 2.52144 52.5656 2.41547L52.7563 2.19295C52.7351 2.21414 52.7245 2.21414 52.7245 2.19295C52.7457 2.17176 52.7775 2.13997 52.8199 2.09759L53.0742 1.7797L53.3603 1.55718C53.4239 1.53599 53.4875 1.52539 53.551 1.52539C53.6358 1.52539 53.7206 1.44062 53.8053 1.27108C53.9537 1.33466 54.0597 1.33466 54.1232 1.27108L54.3458 1.36645L54.918 1.68433L57.0478 1.17571C57.4716 1.06975 57.9061 0.963789 58.3511 0.857826C58.7962 0.751864 59.2412 0.656498 59.6863 0.571728C60.2796 0.465766 60.6611 0.402188 60.8307 0.380996C61.0214 0.338611 61.1909 0.328015 61.3393 0.349208C61.4452 0.349208 61.6042 0.349208 61.8161 0.349208C62.028 0.328015 62.4307 0.264437 63.0241 0.158474L63.8188 0.126686C64.1367 0.0843018 64.4758 0.0631096 64.836 0.0631096C65.2175 0.0419174 65.546 0.0525135 65.8215 0.0948979C65.9698 0.11609 66.0864 0.126686 66.1712 0.126686C66.2771 0.105494 66.3513 0.0948979 66.3937 0.0948979C66.4573 0.0948979 66.5102 0.11609 66.5526 0.158474C66.595 0.179668 66.648 0.243246 66.7116 0.349208C66.7963 0.518747 66.8281 0.624709 66.8069 0.667095C66.7857 0.688287 66.7222 0.698883 66.6162 0.698883C66.5102 0.698883 66.4784 0.709479 66.5208 0.730671C66.5632 0.730671 66.6056 0.783652 66.648 0.889615C66.5844 0.932 66.5314 0.953193 66.489 0.953193C66.4678 0.953193 66.4361 0.974385 66.3937 1.01677C66.3513 1.03796 66.3195 1.05915 66.2983 1.08035C66.2771 1.10154 66.2559 1.11214 66.2347 1.11214C66.3195 1.19691 66.3301 1.33466 66.2665 1.52539C66.2241 1.67374 66.2771 1.80089 66.4255 1.90685C66.3831 1.99162 66.3513 2.0552 66.3301 2.09759C66.3301 2.11878 66.3301 2.15057 66.3301 2.19295C66.3301 2.23534 66.3195 2.27772 66.2983 2.32011C66.2983 2.3413 66.2453 2.36249 66.1394 2.38368C66.1182 2.38368 66.097 2.39428 66.0758 2.41547C66.0758 2.43667 66.0546 2.42607 66.0122 2.38368C65.8427 2.46845 65.6943 2.58501 65.5672 2.73336C65.44 2.88171 65.2917 3.00886 65.1221 3.11483C65.1009 3.13602 65.0903 3.15721 65.0903 3.1784C65.0903 3.19959 65.1539 3.26317 65.2811 3.36913C64.942 3.43271 64.7936 3.57046 64.836 3.78239C64.5605 3.82477 64.285 3.88835 64.0095 3.97312C63.7552 4.05789 63.5009 4.13206 63.2466 4.19564C62.8227 4.3016 62.4095 4.39697 62.0068 4.48174C61.6042 4.54532 61.1062 4.63009 60.5128 4.73605C60.3008 4.77843 60.0783 4.84201 59.8452 4.92678C59.6121 5.01155 59.379 5.09632 59.1458 5.18109C58.828 5.30824 58.5525 5.40361 58.3193 5.46719C58.1074 5.53077 57.8849 5.60494 57.6518 5.68971C57.4399 5.75329 57.1855 5.84865 56.8889 5.97581C56.6133 6.10296 56.2425 6.2725 55.7762 6.48443C55.7762 6.52681 55.7657 6.5586 55.7445 6.57979C55.7233 6.57979 55.7021 6.60099 55.6809 6.64337C55.6597 6.68576 55.6173 6.72814 55.5537 6.77052C55.4901 6.79172 55.4584 6.82351 55.4584 6.86589C55.3312 7.01424 55.2358 7.1308 55.1723 7.21557C55.1299 7.30034 55.0875 7.41689 55.0451 7.56524C54.9815 7.77717 54.865 7.94671 54.6954 8.07386C54.653 8.2434 54.5789 8.40234 54.4729 8.55069C54.3669 8.69904 54.2928 8.82619 54.2504 8.93216C54.208 9.1017 54.1338 9.25004 54.0279 9.3772C53.9219 9.50435 53.8583 9.6633 53.8371 9.85403C53.7736 9.89641 53.7418 9.9282 53.7418 9.94939C53.7206 10.0342 53.657 10.0871 53.551 10.1083C53.4875 10.3203 53.4027 10.5322 53.2967 10.7441C53.212 10.9348 53.1166 11.1256 53.0106 11.3163C52.8623 11.4647 52.7245 11.613 52.5974 11.7614C52.4914 11.9097 52.4172 12.058 52.3749 12.2064C52.4596 12.1004 52.4702 12.1004 52.4066 12.2064C52.3643 12.2912 52.3007 12.3865 52.2159 12.4925C52.4702 12.4501 52.7351 12.3971 53.0106 12.3335C53.2861 12.2488 53.5722 12.1852 53.8689 12.1428C54.208 12.058 54.5471 11.9945 54.8862 11.9521C55.2252 11.8885 55.5749 11.8355 55.9352 11.7931L57.9379 11.4435C58.1286 11.4435 58.3087 11.4647 58.4783 11.507C58.669 11.5282 58.7962 11.6448 58.8598 11.8567V11.8249C58.8809 11.8461 58.8915 11.8885 58.8915 11.9521C58.9339 11.9521 58.9657 11.9521 58.9869 11.9521C59.0293 11.9309 59.0717 11.9203 59.1141 11.9203C59.1988 11.8991 59.2518 11.8991 59.273 11.9203C59.2942 11.9203 59.3048 11.9309 59.3048 11.9521C59.3048 11.9733 59.3154 12.0051 59.3366 12.0474C59.3578 12.0686 59.4108 12.0898 59.4955 12.111C59.5803 12.217 59.6227 12.323 59.6227 12.4289C59.6227 12.5137 59.5061 12.5667 59.273 12.5879L59.1776 12.715L59.4002 12.8422C59.3366 12.9057 59.2624 12.9375 59.1776 12.9375C59.22 12.9799 59.2518 12.9905 59.273 12.9693C59.2942 12.9481 59.3366 12.9375 59.4002 12.9375C59.4849 12.9375 59.5485 12.9587 59.5909 13.0011C59.6545 13.0223 59.7074 13.1177 59.7498 13.2872H59.4955L59.3684 13.3826C59.3896 13.4038 59.4319 13.4144 59.4955 13.4144C59.5591 13.5203 59.5803 13.5733 59.5591 13.5733C59.3896 13.764 59.1776 13.9018 58.9233 13.9866C58.669 14.0501 58.4677 14.0713 58.3193 14.0501C58.2982 14.0501 58.277 14.0607 58.2558 14.0819C58.2346 14.0819 58.2134 14.0819 58.1922 14.0819C58.1074 14.0819 58.0544 14.0925 58.0332 14.1137C57.5458 14.1773 57.0372 14.2833 56.5074 14.4316C55.9988 14.5799 55.5219 14.7177 55.0769 14.8449C55.0345 14.8872 54.9285 14.9084 54.759 14.9084V14.8449ZM48.8145 7.15199L48.8781 7.18378C48.8569 7.18378 48.8357 7.18378 48.8145 7.18378C48.8145 7.16259 48.8039 7.15199 48.7827 7.15199H48.8145ZM78.7677 12.3971C78.7253 12.4607 78.7147 12.5243 78.7359 12.5879C78.7571 12.6302 78.7783 12.6726 78.7995 12.715C78.7571 12.6938 78.7253 12.6514 78.7041 12.5879C78.7041 12.5243 78.6511 12.4819 78.5452 12.4607C78.5028 12.5031 78.5028 12.5455 78.5452 12.5879C78.6087 12.609 78.6511 12.6408 78.6723 12.6832C78.5663 12.5349 78.3756 12.4713 78.1001 12.4925C77.8458 12.5137 77.6339 12.5031 77.4643 12.4607C77.5703 12.5243 77.6445 12.5561 77.6869 12.5561C77.7292 12.5349 77.8034 12.5349 77.9094 12.5561C77.9518 12.5985 77.9518 12.6196 77.9094 12.6196C77.8882 12.6196 77.867 12.6196 77.8458 12.6196C77.9094 12.6832 77.9941 12.7362 78.1001 12.7786C78.2061 12.7998 78.2696 12.874 78.2908 13.0011C78.2696 13.0011 78.2591 13.0223 78.2591 13.0647C78.2591 13.0859 78.2696 13.0965 78.2908 13.0965C78.2696 13.1389 78.2485 13.1495 78.2273 13.1283C78.2061 13.0859 78.1743 13.0647 78.1319 13.0647C78.1107 13.2554 78.0365 13.4038 77.9094 13.5097C77.8034 13.5945 77.7398 13.6581 77.7186 13.7005C77.6339 13.6581 77.5491 13.6581 77.4643 13.7005C77.4008 13.7428 77.3266 13.7534 77.2418 13.7323C77.157 13.7958 77.1041 13.8382 77.0829 13.8594C77.0829 13.8806 77.0829 13.8912 77.0829 13.8912C77.0829 13.8912 77.0617 13.9018 77.0193 13.923C76.9981 13.9442 76.9239 13.9866 76.7968 14.0501C76.7756 14.0501 76.7438 14.1031 76.7014 14.2091C76.5743 14.2303 76.4895 14.2303 76.4471 14.2091C76.4047 14.1667 76.3093 14.1773 76.161 14.2409C76.055 14.3256 75.8855 14.3892 75.6524 14.4316C75.4405 14.4528 75.3027 14.5058 75.2391 14.5905C75.2815 14.6541 75.3557 14.6541 75.4616 14.5905C75.5888 14.5058 75.6842 14.4528 75.7477 14.4316C75.8113 14.5164 75.9067 14.5482 76.0338 14.527C76.1822 14.4846 76.2776 14.4846 76.3199 14.527C76.2987 14.6117 76.2246 14.6329 76.0974 14.5905C75.9067 14.6329 75.716 14.6965 75.5252 14.7813C75.3345 14.8449 75.1438 14.8872 74.953 14.9084C74.9106 14.8872 74.9 14.9084 74.9212 14.972C74.9424 15.0144 74.9424 15.0462 74.9212 15.0674L74.8894 15.0356C74.8683 15.0356 74.8471 15.0356 74.8259 15.0356C74.8259 15.0144 74.8365 15.0038 74.8577 15.0038C74.8365 15.025 74.8259 15.0462 74.8259 15.0674V14.8766C74.6563 15.131 74.5928 15.3747 74.6351 15.6078C74.6775 15.8409 74.6563 16.1058 74.5716 16.4025C74.5292 16.3813 74.508 16.3495 74.508 16.3071C74.5292 16.2647 74.5398 16.2224 74.5398 16.18C74.4974 16.2647 74.4762 16.3601 74.4762 16.4661C74.4762 16.5508 74.455 16.625 74.4126 16.6886C74.3702 16.6462 74.3596 16.6144 74.3808 16.5932C74.402 16.572 74.3808 16.5403 74.3173 16.4979C74.2749 16.6674 74.2325 16.8581 74.1901 17.0701C74.1689 17.2608 74.1689 17.4727 74.1901 17.7058C74.2325 17.7482 74.2537 17.7376 74.2537 17.674C74.2537 17.6105 74.2643 17.5681 74.2855 17.5469V17.6105C74.349 17.5893 74.3702 17.5363 74.349 17.4515C74.3279 17.3456 74.3384 17.2714 74.3808 17.229C74.3808 17.0807 74.402 16.9429 74.4444 16.8158C74.508 16.6674 74.5398 16.572 74.5398 16.5297C74.5822 16.5932 74.5822 16.6674 74.5398 16.7522C74.5186 16.8158 74.4868 16.9005 74.4444 17.0065C74.402 17.1548 74.3914 17.2926 74.4126 17.4197C74.455 17.5469 74.4232 17.6952 74.3173 17.8648C74.3173 17.8648 74.2961 17.8648 74.2537 17.8648C74.1901 18.1615 74.1583 18.5006 74.1583 18.882C74.1583 19.2423 74.1477 19.5708 74.1265 19.8675C74.2113 19.7615 74.2325 19.6132 74.1901 19.4224C74.1689 19.2105 74.1901 19.0516 74.2537 18.9456C74.2749 19.1151 74.2749 19.2741 74.2537 19.4224H74.3173C74.3384 19.592 74.3173 19.7509 74.2537 19.8993C74.1901 20.0476 74.1689 20.2277 74.1901 20.4397C74.2537 20.3973 74.2749 20.3019 74.2537 20.1536C74.2325 19.984 74.2537 19.8781 74.3173 19.8357C74.3596 19.7933 74.3702 19.7615 74.349 19.7403C74.3279 19.6979 74.3384 19.6449 74.3808 19.5814C74.4232 19.5602 74.4338 19.5814 74.4126 19.6449C74.3914 19.7085 74.3914 19.7297 74.4126 19.7085L74.508 19.3906C74.5292 19.3483 74.5398 19.3483 74.5398 19.3906C74.561 19.4118 74.5822 19.4118 74.6034 19.3906V19.2953C74.5822 19.3165 74.5398 19.2847 74.4762 19.1999C74.561 18.988 74.6351 18.7867 74.6987 18.5959C74.7835 18.384 74.8047 18.1403 74.7623 17.8648C74.8047 17.8012 74.8259 17.727 74.8259 17.6423C74.8471 17.5363 74.8577 17.4515 74.8577 17.388C74.9 17.6423 74.9106 17.8648 74.8894 18.0555C74.8683 18.2462 74.8577 18.4582 74.8577 18.6913C74.9212 18.5853 74.9424 18.4688 74.9212 18.3416C74.9 18.1933 74.9106 18.0767 74.953 17.9919C75.0378 18.2039 75.0484 18.4158 74.9848 18.6277C74.9212 18.8184 74.8894 18.9986 74.8894 19.1681C74.9318 19.1469 74.9424 19.1257 74.9212 19.1045C74.9212 19.0833 74.9318 19.0622 74.953 19.041C74.9954 19.1681 75.0166 19.3059 75.0166 19.4542C75.0166 19.6026 75.006 19.7509 74.9848 19.8993C75.0484 20.0052 75.0802 20.143 75.0802 20.3125C75.0802 20.4609 75.0802 20.588 75.0802 20.694C75.0802 20.6516 75.0802 20.6622 75.0802 20.7258C75.0802 20.7893 75.0908 20.8317 75.112 20.8529C75.0908 20.8529 75.0802 20.8317 75.0802 20.7893C74.9742 20.9165 74.9636 21.0966 75.0484 21.3297C75.0696 21.3086 75.0802 21.2556 75.0802 21.1708C75.1226 21.2556 75.112 21.3827 75.0484 21.5523C74.9848 21.7006 74.9636 21.8596 74.9848 22.0291C74.9424 22.0503 74.9424 22.0715 74.9848 22.0927C75.0272 22.0927 75.0166 22.0927 74.953 22.0927V22.1245C74.8895 22.0821 74.8577 21.9973 74.8577 21.8702C74.8789 21.743 74.8894 21.6264 74.8894 21.5205C74.8471 21.7324 74.8047 21.9019 74.7623 22.0291C74.7199 22.1563 74.6987 22.3258 74.6987 22.5377C74.6563 22.5801 74.6245 22.6225 74.6034 22.6649C74.5822 22.6861 74.5504 22.7073 74.508 22.7285C74.508 22.9616 74.4656 23.1841 74.3808 23.396C74.2961 23.5867 74.2431 23.7881 74.2219 24C74.1795 23.9364 74.1583 23.9364 74.1583 24C74.1583 24.0848 74.1371 24.1695 74.0947 24.2543C74.0735 24.2967 74.0523 24.3285 74.0312 24.3497C74.01 24.3709 73.9994 24.3921 73.9994 24.4133L73.9676 24.445V24.4768C73.9676 24.498 73.957 24.5086 73.9358 24.5086C73.9358 24.5298 73.9358 24.551 73.9358 24.5722C73.9358 24.6146 73.9146 24.6252 73.8722 24.604C73.851 24.5828 73.8192 24.5934 73.7768 24.6358C73.7768 24.7841 73.7662 24.8901 73.7451 24.9537C73.7239 25.0172 73.6603 25.102 73.5543 25.208H73.459C73.3954 25.2927 73.3212 25.3457 73.2364 25.3669C73.1729 25.3881 73.1093 25.3987 73.0457 25.3987C72.9821 25.4199 72.9186 25.4517 72.855 25.4941C72.8126 25.5365 72.7808 25.6106 72.7596 25.7166C72.6325 25.6954 72.5583 25.6742 72.5371 25.653C72.5371 25.653 72.5371 25.7166 72.5371 25.8437C72.4947 25.8437 72.4629 25.8543 72.4417 25.8755C72.4205 25.8967 72.3781 25.9179 72.3146 25.9391C72.1662 25.8331 72.0285 25.7802 71.9013 25.7802C71.7742 25.7802 71.6682 25.6636 71.5834 25.4305C71.541 25.1762 71.5093 24.9643 71.4881 24.7947C71.4669 24.6464 71.4457 24.498 71.4245 24.3497C71.4245 24.2225 71.4139 24.0848 71.3927 23.9364C71.3715 23.7669 71.3503 23.5444 71.3291 23.2689C71.2867 22.6119 71.2443 21.9867 71.202 21.3933C71.1808 20.7787 71.1596 20.1642 71.1384 19.5496C71.1384 18.935 71.149 18.3098 71.1702 17.674C71.1914 17.0383 71.2232 16.3601 71.2655 15.6396C71.1172 15.576 70.9477 15.5866 70.7569 15.6714C70.5662 15.7349 70.3225 15.7667 70.0258 15.7667C69.835 15.8091 69.6761 15.8409 69.5489 15.8621C69.443 15.8833 69.3264 15.9045 69.1993 15.9257C69.0721 15.9469 68.9132 15.9787 68.7224 16.021C68.5317 16.0634 68.2668 16.127 67.9277 16.2118C67.9277 16.2542 67.9489 16.2647 67.9913 16.2436C68.0337 16.2224 68.0549 16.2224 68.0549 16.2436C67.9701 16.3071 67.8536 16.3707 67.7052 16.4343C67.5569 16.4979 67.4085 16.5297 67.2602 16.5297C67.3449 16.4661 67.4085 16.4343 67.4509 16.4343C67.5145 16.4131 67.578 16.3813 67.6416 16.3389C67.5569 16.2753 67.4827 16.2859 67.4191 16.3707C67.3555 16.4343 67.292 16.4661 67.2284 16.4661C67.186 16.5085 67.1754 16.5297 67.1966 16.5297C67.239 16.5297 67.2496 16.5508 67.2284 16.5932C67.1648 16.5932 67.1436 16.5614 67.1648 16.4979C67.0588 16.5191 66.9953 16.5508 66.9741 16.5932C66.9529 16.6144 66.9211 16.6462 66.8787 16.6886C66.8363 16.6886 66.7939 16.6886 66.7515 16.6886C66.7304 16.6674 66.688 16.6568 66.6244 16.6568C66.582 16.678 66.5608 16.7098 66.5608 16.7522C66.582 16.7734 66.582 16.8158 66.5608 16.8793C66.3277 17.0065 66.0628 17.0913 65.7661 17.1336C65.4906 17.1548 65.2469 17.2502 65.035 17.4197C64.8018 17.78 64.5581 18.0767 64.3038 18.3098C64.0707 18.5429 63.7846 18.7972 63.4455 19.0728C63.4667 19.1787 63.4879 19.2635 63.5091 19.3271C63.5515 19.3694 63.5197 19.4118 63.4137 19.4542C63.3713 19.5602 63.329 19.6344 63.2866 19.6767C63.2654 19.7191 63.2442 19.7933 63.223 19.8993C63.0323 20.0688 62.8945 20.2701 62.8097 20.5032C62.725 20.7152 62.5978 20.9059 62.4283 21.0754C62.4495 21.1178 62.4601 21.1496 62.4601 21.1708C62.4813 21.192 62.4919 21.2344 62.4919 21.298C62.4071 21.3192 62.3541 21.3615 62.3329 21.4251C62.3117 21.4887 62.2481 21.5311 62.1422 21.5523C62.0998 21.637 62.0892 21.69 62.1104 21.7112C62.1528 21.7324 62.1634 21.7642 62.1422 21.8066C62.0362 21.8066 61.9726 21.8278 61.9514 21.8702C61.9303 21.8913 61.8879 21.9019 61.8243 21.9019C61.8243 21.9443 61.8137 21.9761 61.7925 21.9973C61.7925 21.9973 61.7925 22.0397 61.7925 22.1245C61.7713 22.1457 61.7395 22.1563 61.6971 22.1563C61.6759 22.1563 61.6654 22.1669 61.6654 22.188C61.6654 22.294 61.6548 22.3682 61.6336 22.4106C61.6336 22.4318 61.6442 22.4953 61.6654 22.6013C61.623 22.6649 61.57 22.7179 61.5064 22.7602C61.4428 22.8026 61.411 22.8662 61.411 22.951C61.2203 23.0569 61.0826 23.1947 60.9978 23.3642C60.9342 23.5126 60.8177 23.6397 60.6481 23.7457C60.6905 23.555 60.7753 23.396 60.9024 23.2689C61.0508 23.1417 61.1143 22.9828 61.0932 22.792C61.1567 22.6861 61.2203 22.5695 61.2839 22.4424C61.3475 22.294 61.4534 22.2198 61.6018 22.2198C61.5806 22.1351 61.5806 22.0715 61.6018 22.0291C61.623 21.9655 61.6336 21.9125 61.6336 21.8702C61.6548 21.8702 61.6654 21.8596 61.6654 21.8384C61.6865 21.8172 61.7183 21.8066 61.7607 21.8066C61.8031 21.6582 61.8773 21.5417 61.9832 21.4569C62.0892 21.3721 62.1634 21.2556 62.2058 21.1072C62.2693 21.0437 62.3223 21.0119 62.3647 21.0119C62.3223 20.9059 62.3117 20.8317 62.3329 20.7893C62.3541 20.7258 62.3859 20.6728 62.4283 20.6304C62.4283 20.6092 62.4071 20.6198 62.3647 20.6622C62.3647 20.535 62.4283 20.4185 62.5554 20.3125C62.6826 20.2065 62.7568 20.037 62.778 19.8039C62.7991 19.7191 62.7991 19.6238 62.778 19.5178L62.3965 20.0582C62.2905 20.3125 62.1634 20.5244 62.015 20.694C61.8667 20.8423 61.7713 21.0331 61.7289 21.2662C61.6018 21.4145 61.4852 21.5841 61.3793 21.7748C61.2733 21.9655 61.1567 22.1774 61.0296 22.4106C60.966 22.4953 60.8812 22.5801 60.7753 22.6649C60.6905 22.7496 60.6481 22.845 60.6481 22.951C60.5633 22.9934 60.4998 23.0781 60.4574 23.2053C60.3938 23.2053 60.362 23.2477 60.362 23.3324C60.3408 23.3112 60.3302 23.2371 60.3302 23.1099C60.415 23.0675 60.4786 22.9934 60.521 22.8874C60.5633 22.7602 60.6057 22.6331 60.6481 22.5059C60.4786 22.7179 60.3302 22.951 60.2031 23.2053C60.0759 23.4596 59.9276 23.7033 59.758 23.9364C59.7156 24.0424 59.6733 24.1272 59.6309 24.1907C59.6097 24.2755 59.5673 24.3603 59.5037 24.445C59.4613 24.5934 59.4084 24.7311 59.3448 24.8583C59.2812 24.9854 59.207 25.1126 59.1223 25.2398C59.1858 25.0914 59.2388 24.9749 59.2812 24.8901C59.3448 24.8265 59.366 24.7417 59.3448 24.6358C59.3024 24.6358 59.2812 24.6464 59.2812 24.6676C59.3024 24.6888 59.2918 24.6994 59.2494 24.6994C59.2494 24.551 59.2388 24.4556 59.2176 24.4133C59.0905 24.4556 58.9951 24.5086 58.9315 24.5722C58.8468 24.6358 58.7726 24.6888 58.709 24.7311C58.6666 24.7947 58.6348 24.8583 58.6136 24.9219C58.5713 24.9854 58.5289 25.0172 58.4865 25.0172C58.5289 24.9749 58.5501 24.9325 58.5501 24.8901C58.5289 24.8689 58.5183 24.8371 58.5183 24.7947C58.4123 24.8583 58.2957 24.9749 58.1686 25.1444C58.0414 25.3139 57.9567 25.4623 57.9143 25.5894C57.7024 25.6318 57.5328 25.6106 57.4057 25.5259C57.2573 25.4623 57.0984 25.3987 56.9288 25.3351C56.8441 25.2927 56.8017 25.2715 56.8017 25.2715C56.7805 25.2715 56.7487 25.2186 56.7063 25.1126C56.7275 25.049 56.7169 24.9854 56.6745 24.9219C56.6109 24.8795 56.6004 24.8371 56.6427 24.7947C56.6427 24.7523 56.505 24.7311 56.2295 24.7311L56.007 24.6676C55.9646 24.6464 55.9434 24.6252 55.9434 24.604C55.9434 24.5828 55.9328 24.551 55.9116 24.5086C55.954 24.4662 55.9646 24.4238 55.9434 24.3815C55.901 24.3603 55.901 24.3285 55.9434 24.2861C56.1765 23.7563 56.399 23.3006 56.6109 22.9192C56.8017 22.5377 56.9924 22.1669 57.1831 21.8066C57.3739 21.4463 57.5752 21.086 57.7871 20.7258C57.9991 20.3443 58.2322 19.9099 58.4865 19.4224C58.3169 19.4224 58.2004 19.4224 58.1368 19.4224C58.052 19.4224 57.9249 19.4542 57.7553 19.5178C57.607 19.5814 57.554 19.592 57.5964 19.5496C57.5964 19.5284 57.5858 19.5178 57.5646 19.5178C57.5434 19.4966 57.4586 19.5072 57.3103 19.5496L56.8653 19.1999C56.8017 19.0516 56.7593 18.8502 56.7381 18.5959C56.7169 18.3204 56.7169 18.0449 56.7381 17.7694C56.7381 17.4939 56.7699 17.2396 56.8335 17.0065C56.8759 16.7522 56.9394 16.572 57.0242 16.4661C57.0666 16.4449 57.0984 16.4237 57.1196 16.4025C57.1196 16.3601 57.1408 16.3283 57.1831 16.3071C57.2679 16.2012 57.3633 16.1164 57.4692 16.0528C57.554 15.9892 57.6494 15.9151 57.7553 15.8303C58.0944 15.7031 58.4017 15.6184 58.6772 15.576C58.9315 15.5124 59.2282 15.4276 59.5673 15.3217C59.6733 15.2793 59.8216 15.2369 60.0123 15.1945C60.2031 15.131 60.3726 15.0462 60.521 14.9402C60.5845 14.8978 60.6375 14.8343 60.6799 14.7495C60.7435 14.6435 60.8282 14.527 60.9342 14.3998C61.0402 14.2727 61.1355 14.1455 61.2203 14.0183C61.3051 13.8912 61.3793 13.7746 61.4428 13.6687C61.6971 13.266 61.9409 12.9057 62.174 12.5879C62.4071 12.2488 62.6402 11.9203 62.8733 11.6024C63.1064 11.2633 63.3396 10.9348 63.5727 10.617C63.827 10.2779 64.1025 9.90701 64.3992 9.50435C64.5051 9.31362 64.6535 9.11229 64.8442 8.90037C65.0561 8.68844 65.2257 8.49771 65.3528 8.32817C65.5436 8.03148 65.7449 7.75597 65.9568 7.50166C66.1688 7.24736 66.3595 6.96126 66.529 6.64337C66.7621 6.30429 66.9529 6.03938 67.1012 5.84865C67.2496 5.63673 67.3767 5.446 67.4827 5.27646C67.6098 5.10692 67.737 4.91618 67.8641 4.70426C67.9913 4.47114 68.1608 4.17445 68.3728 3.81418C68.3728 3.79298 68.4257 3.70821 68.5317 3.55987C68.6377 3.39033 68.7542 3.21019 68.8814 3.01946C69.0085 2.82873 69.1251 2.64859 69.2311 2.47905C69.337 2.30951 69.39 2.20355 69.39 2.16116C69.5172 2.0552 69.6231 1.94924 69.7079 1.84328C69.8139 1.71612 69.9198 1.57837 70.0258 1.43002C70.1317 1.38764 70.2271 1.33466 70.3119 1.27108C70.4178 1.18631 70.5132 1.10154 70.598 1.01677C70.6404 0.995577 70.6721 0.995577 70.6933 1.01677C70.7357 1.01677 70.7463 0.984981 70.7251 0.921405H70.8205C70.8841 0.836635 70.99 0.79425 71.1384 0.79425C71.3079 0.773058 71.4775 0.783654 71.647 0.826038C71.8165 0.84723 71.9755 0.889615 72.1238 0.953193C72.2722 1.01677 72.3675 1.06975 72.4099 1.11214C72.5159 1.00617 72.5901 0.942597 72.6325 0.921405C72.696 0.879019 72.7702 0.836634 72.855 0.79425C72.8338 0.751864 72.8656 0.751864 72.9503 0.79425C73.0351 0.815442 73.0881 0.804846 73.1093 0.762461C73.2788 0.762461 73.406 0.783654 73.4907 0.826038C73.5967 0.868422 73.6815 0.921403 73.7451 0.984981C73.8086 1.02737 73.8828 1.06975 73.9676 1.11214C74.0523 1.15452 74.1583 1.18631 74.2855 1.2075C74.3702 1.31347 74.4656 1.39823 74.5716 1.46181C74.6775 1.5042 74.7517 1.58897 74.7941 1.71612C75.3451 1.92805 75.7054 2.3307 75.8749 2.92409C76.0021 3.09363 76.055 3.27377 76.0338 3.4645C76.0127 3.65523 75.9915 3.83537 75.9703 4.00491C75.9279 4.23803 75.8961 4.47114 75.8749 4.70426C75.8749 4.93738 75.8643 5.17049 75.8431 5.40361C75.7371 5.95461 75.663 6.51622 75.6206 7.08841C75.5782 7.63942 75.5358 8.19042 75.4934 8.74142C75.4722 9.03812 75.4405 9.33481 75.3981 9.63151C75.3769 9.9282 75.3663 10.2037 75.3663 10.458C75.3451 10.6699 75.3451 10.956 75.3663 11.3163C75.3875 11.6766 75.3875 11.9839 75.3663 12.2382C75.7689 12.217 76.1186 12.1958 76.4153 12.1746C76.712 12.1534 76.9875 12.1428 77.2418 12.1428C77.4961 12.1428 77.7504 12.1534 78.0047 12.1746C78.2802 12.1958 78.5981 12.2276 78.9584 12.27V12.3653C78.9372 12.3653 78.9054 12.3759 78.863 12.3971C78.8418 12.3971 78.8101 12.3971 78.7677 12.3971ZM71.3609 12.6832C71.4457 11.9415 71.4775 11.2421 71.4563 10.5852C71.4351 9.90701 71.4669 9.13348 71.5516 8.26459C71.4457 8.30698 71.3609 8.35996 71.2973 8.42354C71.2549 8.46592 71.1808 8.56129 71.0748 8.70964L70.2483 9.94939C70.2059 9.99178 70.1529 10.0448 70.0894 10.1083C70.047 10.1719 70.0046 10.2461 69.9622 10.3309C69.9198 10.3944 69.8562 10.4686 69.7715 10.5534C69.6867 10.617 69.6231 10.6805 69.5807 10.7441C69.4536 10.8289 69.3582 10.9137 69.2946 10.9984C69.1887 11.168 69.0933 11.3269 69.0085 11.4753C68.945 11.6236 68.8496 11.7825 68.7224 11.9521C68.7012 11.9733 68.6907 11.9945 68.6907 12.0157C68.4575 12.27 68.2562 12.5031 68.0867 12.715C67.9171 12.9269 67.7158 13.1495 67.4827 13.3826C67.4827 13.4038 67.5039 13.425 67.5463 13.4462V13.5097C68.1608 13.2766 68.7754 13.0859 69.39 12.9375C70.0258 12.7892 70.6827 12.7044 71.3609 12.6832ZM74.3808 22.2516C74.3173 22.5271 74.3278 22.7496 74.4126 22.9192C74.455 22.8132 74.508 22.6543 74.5716 22.4424C74.6351 22.2304 74.6351 22.0609 74.5716 21.9337C74.6139 21.849 74.6351 21.7218 74.6351 21.5523C74.6563 21.3615 74.6881 21.2132 74.7305 21.1072C74.7517 21.1496 74.7517 21.2026 74.7305 21.2662C74.7093 21.3297 74.7305 21.3615 74.7941 21.3615C74.7729 21.2768 74.7729 21.2026 74.7941 21.139C74.8153 21.0754 74.8047 21.0119 74.7623 20.9483C74.7411 21.0119 74.7199 21.0437 74.6987 21.0437C74.6775 21.0437 74.6563 21.0648 74.6351 21.1072C74.6351 21.2132 74.6245 21.3403 74.6034 21.4887C74.5822 21.637 74.5186 21.7536 74.4126 21.8384C74.4338 21.6688 74.4232 21.5311 74.3808 21.4251C74.3384 21.3192 74.349 21.2132 74.4126 21.1072C74.3278 21.0648 74.3067 20.9801 74.349 20.8529C74.3914 20.7258 74.3596 20.6516 74.2537 20.6304C74.2537 20.7152 74.2431 20.7999 74.2219 20.8847C74.2219 20.9695 74.2219 21.0754 74.2219 21.2026C74.2643 21.245 74.2749 21.2874 74.2537 21.3297C74.2325 21.3721 74.2113 21.4145 74.1901 21.4569C74.1901 21.5417 74.2007 21.637 74.2219 21.743C74.2431 21.8278 74.2643 21.9125 74.2855 21.9973C74.2643 22.1245 74.2219 22.2622 74.1583 22.4106C74.1159 22.5589 74.1159 22.7179 74.1583 22.8874C74.2007 22.8238 74.2325 22.7285 74.2537 22.6013C74.2749 22.4741 74.3173 22.3576 74.3808 22.2516ZM74.953 15.4806C74.8895 15.6078 74.8577 15.7773 74.8577 15.9892C74.8789 16.18 74.8789 16.3601 74.8577 16.5297C74.8789 16.5297 74.8894 16.5191 74.8894 16.4979C74.9318 16.5191 74.9424 16.5508 74.9212 16.5932C74.9 16.6144 74.8683 16.6356 74.8259 16.6568C74.7835 16.8687 74.7623 17.0913 74.7623 17.3244C74.7623 17.5363 74.7199 17.727 74.6351 17.8966C74.6563 17.8542 74.6669 17.7906 74.6669 17.7058C74.6669 17.5363 74.6563 17.3668 74.6351 17.1972C74.6351 17.0065 74.6563 16.8264 74.6987 16.6568L74.8259 15.0674C74.8047 15.1098 74.8153 15.1839 74.8577 15.2899C74.9 15.3747 74.9318 15.4382 74.953 15.4806ZM74.4444 19.0728C74.4232 19.0304 74.4126 18.9774 74.4126 18.9138C74.4338 18.829 74.4444 18.7655 74.4444 18.7231C74.402 18.7231 74.3808 18.7337 74.3808 18.7549C74.3808 18.7761 74.349 18.7867 74.2855 18.7867C74.3067 18.5112 74.3384 18.2568 74.3808 18.0237C74.4232 17.7906 74.4656 17.5575 74.508 17.3244C74.5504 17.4939 74.5504 17.674 74.508 17.8648C74.4868 18.0555 74.4974 18.2251 74.5398 18.3734C74.5822 18.2886 74.6034 18.1933 74.6034 18.0873C74.6245 18.2568 74.6139 18.4264 74.5716 18.5959C74.5292 18.7655 74.4868 18.9244 74.4444 19.0728ZM74.6034 20.694C74.6457 20.6092 74.6669 20.5244 74.6669 20.4397C74.6669 20.3549 74.6669 20.2595 74.6669 20.1536C74.5822 20.196 74.5398 20.2913 74.5398 20.4397C74.5398 20.5668 74.561 20.6516 74.6034 20.694ZM74.7941 19.1045C74.7729 19.1681 74.7517 19.2423 74.7305 19.3271C74.7093 19.4118 74.7199 19.486 74.7623 19.5496C74.7835 19.486 74.7941 19.4118 74.7941 19.3271C74.8153 19.2211 74.8153 19.1469 74.7941 19.1045ZM74.8577 20.5668C74.8577 20.5244 74.8471 20.5032 74.8259 20.5032C74.8259 20.5032 74.8365 20.535 74.8577 20.5986V20.7258C74.8789 20.7893 74.8894 20.7999 74.8894 20.7576C74.8894 20.694 74.8789 20.641 74.8577 20.5986C74.9212 20.535 74.9318 20.4503 74.8894 20.3443C74.8894 20.4291 74.8789 20.5032 74.8577 20.5668ZM74.9212 20.2171C74.9636 20.1748 74.9848 20.1536 74.9848 20.1536V19.931C74.9424 20.0582 74.9212 20.1536 74.9212 20.2171ZM74.6034 18.0873C74.6245 18.0449 74.6351 17.9813 74.6351 17.8966C74.6139 17.939 74.6034 17.9601 74.6034 17.9601V18.0873ZM62.778 19.2317V19.1681C62.7568 19.1893 62.7568 19.2105 62.778 19.2317ZM74.3173 19.3906V19.4224C74.3384 19.4224 74.3384 19.4118 74.3173 19.3906ZM74.8577 20.5668V20.5986V20.5668ZM98.4747 -0.222989C98.4959 -0.159412 98.57 -0.106431 98.6972 -0.0640455C98.8244 -0.0216611 98.8985 0.0207239 98.9197 0.0631096C99.2164 0.105494 99.4601 0.190263 99.6509 0.317418C99.8628 0.423381 100.054 0.529344 100.223 0.635306L100.255 0.889615C100.594 0.974385 100.88 1.16512 101.113 1.46181C101.346 1.73731 101.505 2.0446 101.59 2.38368C101.632 2.59561 101.643 2.77574 101.622 2.92409C101.601 3.07244 101.579 3.23138 101.558 3.40092C101.431 3.50689 101.378 3.64464 101.399 3.81418C101.293 3.85656 101.209 3.94133 101.145 4.06849C101.081 4.19564 101.05 4.3122 101.05 4.41816C100.816 4.67247 100.689 4.93738 100.668 5.21288C100.647 5.46719 100.552 5.76388 100.382 6.10296C100.297 6.20892 100.223 6.32548 100.159 6.45264C100.096 6.5586 100.032 6.67516 99.9687 6.80231C99.8628 6.97185 99.7674 7.15199 99.6826 7.34272C99.6191 7.53345 99.5343 7.70299 99.4283 7.85134C99.28 8.02088 99.174 8.19042 99.1105 8.35996C99.0681 8.5295 99.0151 8.68844 98.9515 8.83679C98.9091 8.98514 98.8455 9.13348 98.7608 9.28183C98.6972 9.43018 98.5806 9.56793 98.4111 9.69509C98.4111 9.77986 98.4005 9.82224 98.3793 9.82224C98.2522 9.99178 98.1568 10.1931 98.0932 10.4262C98.0296 10.6381 97.9449 10.8077 97.8389 10.9348C97.8601 11.0832 97.8177 11.2209 97.7117 11.3481C97.627 11.4541 97.5422 11.56 97.4574 11.666C97.3939 11.7084 97.3515 11.7719 97.3303 11.8567C97.3091 11.9415 97.3409 12.0051 97.4256 12.0474H97.2985C97.3409 12.1322 97.3303 12.1958 97.2667 12.2382C97.2243 12.2806 97.2455 12.3124 97.3303 12.3335C97.3091 12.3759 97.2667 12.4289 97.2031 12.4925C97.1607 12.5561 97.1078 12.5879 97.0442 12.5879C97.0866 12.609 97.0866 12.6302 97.0442 12.6514C97.023 12.6726 97.0018 12.7044 96.9806 12.7468H97.1078C97.0866 12.8528 97.0442 12.9587 96.9806 13.0647C96.9382 13.1495 96.8958 13.2448 96.8535 13.3508C96.8111 13.4356 96.7899 13.5309 96.7899 13.6369C96.8111 13.7217 96.8005 13.817 96.7581 13.923C96.7581 13.9442 96.7369 13.9654 96.6945 13.9866C96.6521 13.9866 96.6309 14.0078 96.6309 14.0501C96.5885 14.1561 96.5674 14.2409 96.5674 14.3044C96.5674 14.368 96.5356 14.4316 96.472 14.4952C96.4508 14.5799 96.4084 14.6435 96.3448 14.6859C96.3024 14.7283 96.3024 14.8025 96.3448 14.9084C96.3236 14.9296 96.313 14.9614 96.313 15.0038C96.313 15.025 96.3024 15.0356 96.2813 15.0356C96.2177 15.2263 96.1541 15.3747 96.0905 15.4806C96.0481 15.5654 95.9952 15.6502 95.9316 15.7349C95.868 15.8197 95.8044 15.9045 95.7408 15.9892C95.6985 16.074 95.6561 16.2118 95.6137 16.4025C95.5713 16.4025 95.5395 16.4237 95.5183 16.4661C95.4971 16.5085 95.4759 16.5297 95.4548 16.5297C95.4548 16.6356 95.423 16.7628 95.3594 16.9111C95.2958 17.0383 95.2852 17.1548 95.3276 17.2608C95.2216 17.3668 95.1369 17.4833 95.0733 17.6105C95.0309 17.7164 94.9567 17.8542 94.8508 18.0237C94.872 18.3204 94.7978 18.5535 94.6282 18.7231C94.4799 18.8714 94.4057 19.0728 94.4057 19.3271C94.2998 19.3906 94.2362 19.4648 94.215 19.5496C94.215 19.6132 94.162 19.6555 94.056 19.6767C94.0349 19.7403 94.0349 19.7827 94.056 19.8039C94.0772 19.8251 94.0666 19.8781 94.0243 19.9628C94.0031 20.0052 93.9607 20.0582 93.8971 20.1218C93.8335 20.1642 93.8335 20.2065 93.8971 20.2489C93.8971 20.2913 93.8547 20.3125 93.7699 20.3125C93.7276 20.4185 93.6958 20.535 93.6746 20.6622C93.6746 20.7681 93.6216 20.8741 93.5156 20.9801C93.5156 21.1072 93.5156 21.1602 93.5156 21.139C93.5156 21.0966 93.505 21.0331 93.4839 20.9483C93.4839 20.8635 93.4733 20.7999 93.4521 20.7576C93.4309 20.7152 93.3991 20.747 93.3567 20.8529C93.3779 21.0648 93.3885 21.2768 93.3885 21.4887C93.3885 21.7006 93.3673 21.9549 93.3249 22.2516C93.3673 22.3576 93.3885 22.4529 93.3885 22.5377C93.3885 22.6013 93.3991 22.6861 93.4203 22.792C93.3567 22.7708 93.2719 22.7602 93.166 22.7602C93.1448 22.8238 93.1554 22.8874 93.1978 22.951C93.2401 23.0146 93.2295 23.0675 93.166 23.1099C93.2719 23.1735 93.3355 23.2689 93.3567 23.396C93.3779 23.502 93.3885 23.6185 93.3885 23.7457C93.3673 23.7881 93.3355 23.7775 93.2931 23.7139C93.2507 23.6503 93.1978 23.6397 93.1342 23.6821C93.0706 23.7457 93.06 23.7881 93.1024 23.8093C92.9964 23.8093 92.9328 23.7775 92.9117 23.7139C92.8905 23.6291 92.8481 23.5444 92.7845 23.4596C92.6785 23.6079 92.6256 23.7245 92.6256 23.8093C92.6467 23.894 92.6891 23.9894 92.7527 24.0954C92.6256 24.1801 92.5302 24.2119 92.4666 24.1907C92.4242 24.3391 92.3924 24.4768 92.3712 24.604C92.3712 24.7523 92.3606 24.8901 92.3395 25.0172C92.3395 25.1444 92.3077 25.261 92.2441 25.3669C92.1805 25.4729 92.0746 25.5576 91.9262 25.6212C91.8626 25.6848 91.7779 25.7166 91.6719 25.7166C91.4388 25.759 91.1209 25.7272 90.7182 25.6212C90.3156 25.5153 90.0189 25.4517 89.8282 25.4305C89.6586 25.4517 89.4997 25.4517 89.3513 25.4305C89.2242 25.4305 89.0758 25.3457 88.9063 25.1762C88.8003 25.0278 88.6838 24.8583 88.5566 24.6676C88.4294 24.4768 88.3023 24.2755 88.1751 24.0636C88.048 23.8728 87.942 23.6715 87.8573 23.4596C87.7725 23.2477 87.7407 23.0569 87.7619 22.8874C87.7831 22.7814 87.8149 22.6649 87.8573 22.5377C87.8996 22.3894 87.8996 22.241 87.8573 22.0927C87.7937 21.9019 87.7195 21.69 87.6347 21.4569C87.55 21.2238 87.4652 21.0013 87.3804 20.7893C87.2109 20.3867 87.0943 20.0688 87.0307 19.8357C86.9672 19.5814 86.9142 19.3483 86.8718 19.1363C86.8506 18.9032 86.8188 18.6595 86.7764 18.4052C86.7341 18.1297 86.6387 17.7694 86.4903 17.3244C86.448 17.1336 86.4162 16.9959 86.395 16.9111C86.395 16.8264 86.3844 16.7416 86.3632 16.6568C86.342 16.572 86.3102 16.4767 86.2678 16.3707C86.2466 16.2436 86.2042 16.0422 86.1407 15.7667C86.1195 15.576 86.0771 15.3959 86.0135 15.2263C85.9499 15.0568 85.8758 14.8978 85.791 14.7495C85.7274 14.5164 85.685 14.2621 85.6638 13.9866C85.6426 13.7111 85.5791 13.4673 85.4731 13.2554C85.4095 13.1706 85.3671 13.0435 85.3459 12.874C85.3248 12.6832 85.2718 12.6196 85.187 12.6832L84.8373 13.2236C84.8373 13.2872 84.8161 13.3508 84.7737 13.4144C84.7526 13.4567 84.7314 13.4885 84.7102 13.5097C84.5618 13.7428 84.4559 13.976 84.3923 14.2091C84.3499 14.4422 84.2757 14.6329 84.1698 14.7813C84.1062 14.9508 84.0108 15.131 83.8837 15.3217C83.7565 15.4912 83.6717 15.6608 83.6294 15.8303C83.5234 16.021 83.4386 16.1694 83.375 16.2753C83.3115 16.3601 83.2479 16.4449 83.1843 16.5297C83.1207 16.6144 83.0466 16.7098 82.9618 16.8158C82.8982 16.9005 82.8134 17.0489 82.7075 17.2608C82.6651 17.4091 82.6121 17.5257 82.5485 17.6105C82.5062 17.674 82.4638 17.7588 82.4214 17.8648C82.5273 17.6317 82.6121 17.4091 82.6757 17.1972C82.7393 16.9853 82.7287 16.9641 82.6439 17.1336C82.6227 17.2396 82.5909 17.3244 82.5485 17.388C82.5273 17.4515 82.4956 17.5045 82.4532 17.5469C82.4108 17.674 82.3578 17.7906 82.2942 17.8966C82.2307 18.0025 82.1459 18.1191 82.0399 18.2462C82.0399 18.331 82.0293 18.3734 82.0081 18.3734C81.9869 18.3734 81.9551 18.3734 81.9128 18.3734C81.8916 18.3522 81.8598 18.3416 81.8174 18.3416C81.7962 18.3204 81.7644 18.3416 81.722 18.4052C81.7432 18.4688 81.7432 18.5112 81.722 18.5323C81.722 18.5323 81.722 18.5535 81.722 18.5959C81.7008 18.6383 81.6902 18.6913 81.6902 18.7549C81.6902 18.7972 81.6796 18.829 81.6585 18.8502C81.6373 18.9562 81.5843 19.0304 81.4995 19.0728C81.4359 19.1151 81.3935 19.1893 81.3724 19.2953C81.33 19.4436 81.2982 19.592 81.277 19.7403C81.277 19.8887 81.224 20.0264 81.118 20.1536C81.0545 20.3231 80.9697 20.5032 80.8637 20.694C80.779 20.8635 80.7578 21.0437 80.8002 21.2344C80.7578 21.2344 80.7366 21.2556 80.7366 21.298C80.7366 21.3192 80.726 21.3192 80.7048 21.298C80.6836 21.5735 80.62 21.796 80.5141 21.9655C80.4081 22.1351 80.3445 22.3364 80.3233 22.5695C80.2809 22.5907 80.2598 22.6331 80.2598 22.6967C80.2809 22.739 80.2703 22.7814 80.228 22.8238C80.228 22.9086 80.2068 22.9722 80.1644 23.0146C80.1432 23.0357 80.1432 23.0993 80.1644 23.2053C80.1644 23.2689 80.122 23.3218 80.0372 23.3642C79.9101 23.4914 79.8465 23.6609 79.8465 23.8728C79.8041 24.0424 79.7511 24.1378 79.6876 24.1589C79.6664 24.1166 79.6664 24.0954 79.6876 24.0954C79.7087 24.0954 79.7193 24.0742 79.7193 24.0318C79.7193 23.7775 79.7935 23.5338 79.9419 23.3006C80.0902 23.0675 80.1644 22.8026 80.1644 22.5059C80.1856 22.5059 80.1962 22.4953 80.1962 22.4741C80.1962 22.4318 80.2068 22.4 80.228 22.3788C80.2068 22.3364 80.1962 22.3046 80.1962 22.2834C80.2174 22.2622 80.228 22.241 80.228 22.2198C80.3339 22.1139 80.3763 21.9973 80.3551 21.8702C80.3551 21.7218 80.4081 21.6264 80.5141 21.5841C80.4929 21.5417 80.4823 21.5205 80.4823 21.5205C80.4823 21.4993 80.4611 21.4887 80.4187 21.4887C80.5035 21.4039 80.5353 21.3192 80.5141 21.2344C80.4293 21.2344 80.3869 21.2874 80.3869 21.3933C80.3869 21.4781 80.3445 21.5417 80.2598 21.5841C80.3021 21.69 80.3021 21.7748 80.2598 21.8384C80.2386 21.9019 80.2174 21.9443 80.1962 21.9655C80.1538 22.0079 80.1432 22.0609 80.1644 22.1245C80.2068 22.1669 80.2174 22.1986 80.1962 22.2198C80.175 22.2622 80.1326 22.3046 80.069 22.347C80.0266 22.3682 79.9842 22.4318 79.9419 22.5377C79.8783 22.7708 79.8253 22.9934 79.7829 23.2053C79.7405 23.396 79.6664 23.5656 79.5604 23.7139C79.5816 23.8622 79.5498 24.0106 79.465 24.1589C79.4015 24.3073 79.3697 24.4768 79.3697 24.6676C79.2637 24.7099 79.2001 24.7523 79.1789 24.7947C79.1789 24.8583 79.126 24.9113 79.02 24.9537C78.9988 24.8053 79.0094 24.657 79.0518 24.5086C79.1154 24.3815 79.1683 24.2543 79.2107 24.1272C79.1683 24.0424 79.1471 23.9152 79.1471 23.7457C79.02 23.8517 78.9246 24.0318 78.861 24.2861C78.7975 24.5404 78.7339 24.7099 78.6703 24.7947C78.6491 24.7947 78.6385 24.7629 78.6385 24.6994C78.6385 24.6358 78.6385 24.5828 78.6385 24.5404C78.5961 24.5404 78.5644 24.5404 78.5432 24.5404C78.522 24.5616 78.5008 24.5722 78.4796 24.5722C78.4796 24.6782 78.4584 24.7947 78.416 24.9219C78.3948 25.0702 78.2994 25.1762 78.1299 25.2398C78.1935 25.1762 78.2147 25.0808 78.1935 24.9537C78.1935 24.8477 78.2253 24.7523 78.2889 24.6676C78.1193 24.6464 78.0239 24.6888 78.0028 24.7947C78.0028 24.9007 78.0028 24.996 78.0028 25.0808C77.9604 25.0808 77.9286 25.102 77.9074 25.1444C77.8862 25.208 77.8438 25.2398 77.7802 25.2398C77.759 25.2821 77.7484 25.3139 77.7484 25.3351C77.7696 25.3563 77.7696 25.4199 77.7484 25.5259C77.5153 25.5471 77.2928 25.5682 77.0809 25.5894C76.8478 25.6106 76.6041 25.6212 76.3497 25.6212C76.159 25.5153 76.0319 25.3563 75.9683 25.1444C75.9047 24.9325 75.8835 24.6994 75.9047 24.445C75.9259 24.1907 75.9683 23.947 76.0319 23.7139C76.0954 23.4596 76.1484 23.2477 76.1908 23.0781C76.1908 22.9934 76.1908 22.898 76.1908 22.792C76.1696 22.6861 76.1802 22.6119 76.2226 22.5695C76.2862 22.3152 76.3709 22.0927 76.4769 21.9019C76.5617 21.69 76.657 21.4357 76.763 21.139C76.869 20.694 76.9749 20.2489 77.0809 19.8039C77.1657 19.3377 77.2928 18.8608 77.4623 18.3734C77.5259 18.331 77.5789 18.2356 77.6213 18.0873C77.6637 17.9813 77.6849 17.8754 77.6849 17.7694C77.6637 17.6423 77.6743 17.5257 77.7167 17.4197C77.971 16.9111 78.1299 16.5614 78.1935 16.3707C78.2571 16.1588 78.2994 15.9787 78.3206 15.8303C78.363 15.682 78.416 15.5124 78.4796 15.3217C78.5432 15.1098 78.6915 14.7495 78.9246 14.2409C79.0306 14.0501 79.126 13.817 79.2107 13.5415C79.3167 13.266 79.4121 12.9905 79.4968 12.715C79.6028 12.4183 79.6982 12.1322 79.7829 11.8567C79.8889 11.5812 79.9948 11.3481 80.1008 11.1574C80.1856 10.9031 80.3021 10.5958 80.4505 10.2355C80.62 9.85403 80.7896 9.46197 80.9591 9.05931C81.1286 8.65665 81.2982 8.28579 81.4677 7.94671C81.6373 7.58644 81.775 7.30034 81.881 7.08841C82.0505 6.66456 82.2095 6.30429 82.3578 6.0076C82.5273 5.68971 82.6969 5.35063 82.8664 4.99036C82.9724 4.82082 83.0572 4.66187 83.1207 4.51353C83.1843 4.34399 83.2585 4.17445 83.3433 4.00491C83.428 3.89895 83.5022 3.78239 83.5658 3.65523C83.6294 3.52808 83.7141 3.41152 83.8201 3.30556L83.9155 2.66978C84.0214 2.52144 84.1274 2.38368 84.2333 2.25653C84.3393 2.10818 84.4347 1.95983 84.5194 1.81149C84.689 1.72672 84.8373 1.61016 84.9645 1.46181C85.1128 1.31346 85.2506 1.17571 85.3777 1.04856C85.5685 1.04856 85.6744 0.953192 85.6956 0.762461C85.9075 0.741268 86.0983 0.76246 86.2678 0.826038C86.4585 0.889616 86.6175 0.953193 86.7446 1.01677C87.1473 1.08035 87.5394 1.23929 87.9208 1.4936C88.0692 1.66314 88.2069 1.80089 88.3341 1.90685C88.4824 1.99162 88.6096 2.10818 88.7155 2.25653C88.8003 2.32011 88.8639 2.44726 88.9063 2.63799C89.0122 2.70157 89.0758 2.76515 89.097 2.82873C89.1182 2.8923 89.1394 2.93469 89.1606 2.95588C89.2242 3.06184 89.256 3.1784 89.256 3.30556C89.256 3.43271 89.256 3.52808 89.256 3.59166C89.3195 3.74 89.3619 3.90954 89.3831 4.10027C89.4255 4.29101 89.4679 4.47114 89.5103 4.64068C89.5526 4.97976 89.5844 5.31884 89.6056 5.65792C89.6268 5.97581 89.6586 6.2831 89.701 6.57979C89.701 6.74933 89.701 6.94006 89.701 7.15199C89.701 7.34272 89.7222 7.52286 89.7646 7.6924C89.7646 7.73478 89.7646 7.76657 89.7646 7.78776C89.7858 7.80896 89.7964 7.84074 89.7964 7.88313C89.8599 8.05267 89.9129 8.33877 89.9553 8.74142C90.0189 9.14408 90.0719 9.56793 90.1142 10.013C90.1778 10.458 90.2308 10.8819 90.2732 11.2845C90.3368 11.666 90.4003 11.9415 90.4639 12.111C90.5487 12.6196 90.6017 13.0965 90.6229 13.5415C90.6653 13.9654 90.697 14.3892 90.7182 14.8131C90.7606 15.2157 90.803 15.6184 90.8454 16.021C90.909 16.4237 91.0043 16.8475 91.1315 17.2926C91.3646 17.0595 91.4812 16.7522 91.4812 16.3707C91.7567 15.8621 91.9474 15.3535 92.0534 14.8449C92.1805 14.3362 92.3501 13.8064 92.562 13.2554C92.8799 12.4289 93.1236 11.7825 93.2931 11.3163C93.4627 10.8289 93.611 10.3944 93.7382 10.013C93.8865 9.61032 94.0455 9.18647 94.215 8.74142C94.3845 8.29638 94.6282 7.6818 94.9461 6.89768C95.0945 6.62218 95.2534 6.2725 95.423 5.84865C95.5925 5.4248 95.762 4.99036 95.9316 4.54532C96.1011 4.10027 96.2601 3.67643 96.4084 3.27377C96.578 2.84992 96.7263 2.48965 96.8535 2.19295L96.8852 1.97043C96.864 1.84328 96.9064 1.70552 97.0124 1.55718C97.0124 1.40883 97.0548 1.29227 97.1396 1.2075C97.2243 1.12273 97.3515 1.00617 97.521 0.857826C97.5634 0.79425 97.627 0.730673 97.7117 0.667095C97.8177 0.582325 97.8919 0.45517 97.9343 0.28563H98.0614C98.1038 0.137283 98.1356 0.0207246 98.1568 -0.0640455C98.178 -0.170008 98.2839 -0.222989 98.4747 -0.222989ZM93.8653 14.9402C93.8441 14.9402 93.8229 14.9614 93.8017 15.0038C93.8017 15.0462 93.7805 15.0674 93.7382 15.0674C93.7594 15.2369 93.7382 15.3959 93.6746 15.5442C93.611 15.6714 93.558 15.8197 93.5156 15.9892C93.4944 16.0104 93.4839 16.021 93.4839 16.021H93.5156C93.558 15.8727 93.6216 15.7455 93.7064 15.6396C93.7911 15.5124 93.8335 15.3747 93.8335 15.2263C93.9395 15.078 94.0137 14.919 94.056 14.7495C94.1196 14.5588 94.1726 14.3998 94.215 14.2727C94.109 14.3998 94.0137 14.5164 93.9289 14.6223C93.8653 14.7071 93.8441 14.8131 93.8653 14.9402ZM80.9273 19.7403C80.8849 19.8039 80.8637 19.8781 80.8637 19.9628C80.8637 20.0264 80.8319 20.0476 80.7684 20.0264C80.7472 20.0264 80.7154 20.0158 80.673 19.9946C80.6518 19.9734 80.6306 19.9734 80.6094 19.9946C80.6094 20.0582 80.5882 20.1112 80.5458 20.1536C80.5247 20.196 80.5141 20.2595 80.5141 20.3443C80.5564 20.3443 80.5776 20.3337 80.5776 20.3125C80.5776 20.2913 80.5882 20.2807 80.6094 20.2807C80.6518 20.2383 80.6518 20.2171 80.6094 20.2171C80.5882 20.2171 80.5882 20.2065 80.6094 20.1854C80.6518 20.1854 80.673 20.1748 80.673 20.1536C80.673 20.1324 80.7048 20.1324 80.7684 20.1536C80.726 20.196 80.726 20.2171 80.7684 20.2171C80.8955 20.196 80.9591 20.09 80.9591 19.8993V19.7721C80.9591 19.7509 80.9485 19.7403 80.9273 19.7403ZM94.215 14.1455C94.321 14.1243 94.3845 14.0607 94.4057 13.9548C94.4481 13.8488 94.4799 13.7428 94.5011 13.6369C94.3739 13.7428 94.2998 13.8276 94.2786 13.8912C94.2574 13.9548 94.2362 14.0395 94.215 14.1455ZM80.5141 21.2344C80.5564 21.192 80.5882 21.1072 80.6094 20.9801C80.6518 20.8529 80.7048 20.7258 80.7684 20.5986C80.6624 20.5986 80.5882 20.6834 80.5458 20.8529C80.5247 21.0013 80.5141 21.1284 80.5141 21.2344ZM81.0863 18.5323C81.1075 18.6595 81.0863 18.7443 81.0227 18.7867C80.9803 18.829 80.9591 18.8926 80.9591 18.9774C81.0651 18.9774 81.118 18.9244 81.118 18.8184C81.118 18.6913 81.1392 18.5853 81.1816 18.5006H81.2134V18.4688C81.2346 18.4476 81.2452 18.4264 81.2452 18.4052C81.2028 18.4476 81.1604 18.4688 81.118 18.4688C81.0757 18.4476 81.0757 18.4582 81.118 18.5006C81.118 18.5217 81.118 18.5323 81.118 18.5323H81.0863ZM78.4796 24.4768C78.5008 24.498 78.522 24.5086 78.5432 24.5086H78.575C78.6173 24.5298 78.6491 24.4662 78.6703 24.3179C78.6703 24.2331 78.6385 24.1907 78.575 24.1907C78.575 24.2543 78.5538 24.2967 78.5114 24.3179C78.4902 24.3391 78.4796 24.3921 78.4796 24.4768ZM80.7048 19.6767C80.8108 19.6344 80.8531 19.592 80.8319 19.5496C80.8319 19.5072 80.8531 19.4648 80.8955 19.4224H80.8002C80.7578 19.486 80.7366 19.5284 80.7366 19.5496C80.7578 19.5708 80.7472 19.6132 80.7048 19.6767ZM80.9591 19.4542C80.9591 19.4754 80.9485 19.486 80.9273 19.486C80.9273 19.486 80.9273 19.4966 80.9273 19.5178V19.5496V19.6449C80.9909 19.6238 81.0121 19.6026 80.9909 19.5814C80.9909 19.5602 81.0015 19.5284 81.0227 19.486C80.9803 19.4648 80.9591 19.4542 80.9591 19.4542ZM80.7366 20.3761C80.7366 20.3337 80.7472 20.3125 80.7684 20.3125C80.8108 20.3125 80.8319 20.2807 80.8319 20.2171C80.7896 20.2595 80.7472 20.2913 80.7048 20.3125C80.6624 20.3337 80.673 20.3549 80.7366 20.3761ZM80.6412 19.8993C80.726 19.8993 80.7684 19.8781 80.7684 19.8357H80.6412V19.8993ZM78.6703 24.0636V24.0954C78.7551 24.0954 78.7975 24.0742 78.7975 24.0318C78.7127 24.0318 78.6703 24.0424 78.6703 24.0636ZM81.3406 18.4052V18.3098C81.3194 18.331 81.2876 18.3522 81.2452 18.3734C81.224 18.3734 81.2558 18.384 81.3406 18.4052ZM82.326 18.2145L82.4214 17.8648C82.3578 17.9707 82.326 18.0873 82.326 18.2145ZM80.673 20.4397H80.6094C80.6306 20.4821 80.6306 20.5032 80.6094 20.5032H80.7048H80.673V20.4397ZM82.326 18.278C82.2836 18.3628 82.2624 18.3946 82.2624 18.3734C82.2624 18.3522 82.2836 18.2992 82.326 18.2145V18.278ZM80.8002 20.0264H80.7684C80.7896 20.0476 80.8002 20.0476 80.8002 20.0264ZM116.446 15.6714L115.048 16.0528L113.998 16.3071L112.949 16.5614L112.695 17.1336C112.632 17.2608 112.568 17.3774 112.504 17.4833C112.462 17.5893 112.388 17.7058 112.282 17.833C112.218 18.1933 112.081 18.6171 111.869 19.1045C111.678 19.592 111.477 20.0794 111.265 20.5668C111.159 20.8635 111.063 21.1284 110.979 21.3615C110.915 21.5947 110.83 21.8278 110.724 22.0609L110.534 22.188C110.555 22.294 110.555 22.3788 110.534 22.4424C110.512 22.5059 110.481 22.5801 110.438 22.6649L110.184 23.0463V23.0781H110.12C110.12 23.1205 110.12 23.1523 110.12 23.1735C110.141 23.1947 110.152 23.2159 110.152 23.2371C110.11 23.3006 110.078 23.3748 110.057 23.4596C110.035 23.5444 110.004 23.6291 109.961 23.7139C109.94 23.8411 109.919 23.947 109.898 24.0318C109.898 24.1378 109.855 24.2225 109.771 24.2861V24.3815C109.707 24.6782 109.59 24.8477 109.421 24.8901C109.421 24.8265 109.421 24.7629 109.421 24.6994C109.442 24.6358 109.453 24.5828 109.453 24.5404C109.495 24.4556 109.495 24.3709 109.453 24.2861L109.421 24.3815C109.442 24.4874 109.442 24.551 109.421 24.5722C109.4 24.6146 109.315 24.657 109.167 24.6994L109.103 24.604L108.912 24.6994L108.563 24.7947V24.7629C108.541 24.8053 108.52 24.8371 108.499 24.8583C108.478 24.9007 108.467 24.9537 108.467 25.0172C108.404 25.3139 108.308 25.4941 108.181 25.5576C108.181 25.6424 108.139 25.7272 108.054 25.812C107.99 25.9179 107.927 25.9709 107.863 25.9709C107.863 25.9497 107.831 25.9179 107.768 25.8755C107.768 26.0663 107.62 26.204 107.323 26.2888C107.365 26.2888 107.365 26.2994 107.323 26.3206C107.28 26.363 107.217 26.3947 107.132 26.4159C107.069 26.4583 106.984 26.4901 106.878 26.5113C106.793 26.5537 106.729 26.5749 106.687 26.5749C106.56 26.6173 106.465 26.6597 106.401 26.702C106.359 26.7444 106.189 26.7444 105.892 26.702C105.85 26.6173 105.786 26.5749 105.702 26.5749L105.67 26.1298L105.447 25.6212C105.596 24.2225 105.882 22.898 106.306 21.6476C106.729 20.3761 107.1 19.0833 107.418 17.7694C107.355 17.727 107.28 17.727 107.196 17.7694C107.132 17.7906 107.069 17.8012 107.005 17.8012C106.92 17.8224 106.814 17.886 106.687 17.9919C106.56 18.0767 106.443 18.0979 106.337 18.0555C106.104 18.0343 105.871 18.0555 105.638 18.1191C105.384 18.1615 105.204 18.1297 105.098 18.0237C104.992 18.0025 104.918 17.8542 104.875 17.5787C104.833 17.282 104.79 17.0701 104.748 16.9429L104.939 15.8621C104.918 15.8833 104.928 15.8727 104.97 15.8303C104.992 15.7667 105.023 15.7137 105.066 15.6714C105.129 15.6078 105.193 15.5336 105.257 15.4488C105.299 15.3217 105.331 15.2051 105.352 15.0992C105.352 14.9932 105.416 14.919 105.543 14.8766C105.67 14.8343 105.776 14.7919 105.861 14.7495C105.945 14.6859 106.041 14.6223 106.147 14.5588C106.231 14.5799 106.295 14.5905 106.337 14.5905C106.38 14.5694 106.412 14.5588 106.433 14.5588C106.475 14.5376 106.496 14.5376 106.496 14.5588C106.496 14.5799 106.518 14.5694 106.56 14.527C106.539 14.4846 106.528 14.4634 106.528 14.4634C106.655 14.3362 106.729 14.2727 106.751 14.2727C106.793 14.2727 106.804 14.2197 106.782 14.1137C106.867 14.0713 106.899 14.0607 106.878 14.0819C106.878 14.0819 106.899 14.1243 106.941 14.2091C106.941 14.2303 106.941 14.2409 106.941 14.2409C106.984 14.2409 107.09 14.1985 107.259 14.1137C107.429 14.0289 107.545 14.0078 107.609 14.0501C107.778 14.0713 107.884 14.0607 107.927 14.0183C107.99 13.9548 108.043 13.9018 108.086 13.8594C108.107 13.7323 108.149 13.7217 108.213 13.8276C108.277 13.9336 108.319 13.9548 108.34 13.8912C108.34 13.8488 108.382 13.8276 108.467 13.8276C108.552 13.8276 108.594 13.8064 108.594 13.764C108.679 13.5733 108.753 13.4144 108.817 13.2872C108.902 13.1389 108.976 13.0011 109.039 12.874C109.103 12.7256 109.167 12.5667 109.23 12.3971C109.315 12.2276 109.4 12.0157 109.484 11.7614C109.675 11.2103 109.855 10.6805 110.025 10.1719C110.194 9.6421 110.396 9.13349 110.629 8.64606L111.138 7.31093C111.265 7.01424 111.392 6.70695 111.519 6.38906C111.646 6.07117 111.763 5.70031 111.869 5.27646H111.964C112.176 4.64068 112.43 3.96252 112.727 3.24198L113.204 2.28832L113.331 2.12937V2.16116C113.373 1.90685 113.458 1.68433 113.585 1.4936C113.712 1.30287 113.829 1.12273 113.935 0.953193L114.285 0.603516C114.369 0.603516 114.422 0.603516 114.444 0.603516C114.465 0.582324 114.497 0.561132 114.539 0.53994V0.571728L114.571 0.53994C114.592 0.518747 114.613 0.497555 114.634 0.476363C114.655 0.45517 114.687 0.402188 114.73 0.317418C114.92 0.169071 115.079 0.147879 115.206 0.253841C115.334 0.338611 115.45 0.465766 115.556 0.635306H115.524L115.652 0.857826V0.79425L115.747 0.984981C115.768 1.02737 115.779 1.05915 115.779 1.08035L116.414 0.79425C116.52 0.815442 116.637 0.836634 116.764 0.857826C116.891 0.857826 117.008 0.868422 117.114 0.889615C117.241 0.910808 117.379 0.932001 117.527 0.953193C117.824 1.16512 118.036 1.43002 118.163 1.74791C118.248 1.85387 118.332 1.97043 118.417 2.09759C118.502 2.22474 118.629 2.36249 118.799 2.51084L118.926 2.76515C119.18 3.08303 119.244 3.4645 119.116 3.90954L118.576 4.99036C118.385 5.24467 118.226 5.50957 118.099 5.78508C117.993 6.03938 117.834 6.31489 117.622 6.61158L117.591 6.86589C117.527 7.14139 117.41 7.30034 117.241 7.34272L116.414 9.05931C116.245 9.46197 116.086 9.79045 115.938 10.0448C115.81 10.2991 115.683 10.5428 115.556 10.7759C115.429 10.9878 115.302 11.2315 115.175 11.507C115.048 11.7614 114.91 12.1004 114.761 12.5243C114.931 12.5031 115.1 12.4607 115.27 12.3971C115.44 12.3124 115.62 12.2488 115.81 12.2064L117.082 12.0157C117.315 11.9733 117.474 11.9309 117.559 11.8885C117.665 11.8461 117.834 11.8143 118.067 11.7931C118.258 11.7719 118.481 11.7402 118.735 11.6978C118.989 11.6554 119.254 11.613 119.53 11.5706C119.826 11.5282 120.113 11.5176 120.388 11.5388C120.664 11.5388 120.928 11.4964 121.183 11.4117L121.85 10.3309C121.914 10.2037 121.999 10.013 122.105 9.75866C122.232 9.50435 122.338 9.32422 122.422 9.21825L122.772 8.39175C122.857 8.2434 122.91 8.17982 122.931 8.20102C122.952 8.20102 122.995 8.11625 123.058 7.94671L123.217 7.56524C123.302 7.35332 123.397 7.14139 123.503 6.92947C123.63 6.69635 123.715 6.48443 123.758 6.29369L123.853 6.26191C123.789 6.26191 123.779 6.23012 123.821 6.16654C123.864 6.10296 123.906 6.06058 123.948 6.03939C124.054 5.70031 124.15 5.4354 124.234 5.24467C124.34 5.05393 124.478 4.81022 124.648 4.51353C124.754 4.32279 124.87 4.05789 124.997 3.71881C125.146 3.35854 125.305 3.01946 125.474 2.70157C125.538 2.63799 125.591 2.56382 125.633 2.47905C125.676 2.37309 125.718 2.26713 125.76 2.16116C125.93 1.99162 126.078 1.82208 126.205 1.65254C126.333 1.46181 126.523 1.31347 126.778 1.2075L127 1.14392C127.106 1.10154 127.191 1.13333 127.254 1.23929C127.318 1.34525 127.403 1.35585 127.509 1.27108C127.53 1.27108 127.583 1.30287 127.668 1.36645C127.752 1.40883 127.837 1.46181 127.922 1.52539C128.028 1.58897 128.113 1.64195 128.176 1.68433C128.261 1.72672 128.303 1.72672 128.303 1.68433H128.494L128.812 1.97043C129.024 1.99162 129.141 2.03401 129.162 2.09759C129.183 2.13997 129.204 2.22474 129.225 2.35189L129.384 2.54263H129.352L129.702 3.08303L129.797 3.30556C129.819 3.4539 129.85 3.59165 129.893 3.71881C129.935 3.84596 130.009 3.95193 130.115 4.0367C130.115 4.37578 130.041 4.67247 129.893 4.92678C129.766 5.1599 129.617 5.37182 129.448 5.56255C129.469 5.58375 129.469 5.60494 129.448 5.62613C129.427 5.62613 129.416 5.64732 129.416 5.68971L129.321 5.88044V5.91223L129.066 6.29369L129.003 6.42085C129.003 6.44204 128.992 6.46323 128.971 6.48443C128.95 6.50562 128.939 6.52681 128.939 6.548C128.642 7.09901 128.356 7.56524 128.081 7.94671C127.805 8.32817 127.551 8.79441 127.318 9.34541L126.523 10.6805L126.142 11.4435C126.248 11.4647 126.364 11.4753 126.491 11.4753C126.64 11.4541 126.778 11.4435 126.905 11.4435H127.477V11.5388C127.583 11.5812 127.699 11.6236 127.827 11.666C127.954 11.6872 128.07 11.6766 128.176 11.6342C128.282 11.6766 128.399 11.7614 128.526 11.8885C128.653 11.9945 128.748 12.0898 128.812 12.1746L128.685 12.27C128.664 12.2276 128.6 12.2064 128.494 12.2064C128.409 12.1852 128.335 12.1958 128.272 12.2382H128.399C128.441 12.2382 128.473 12.2488 128.494 12.27C128.515 12.2912 128.547 12.3018 128.59 12.3018H127.827C127.636 12.3018 127.456 12.3124 127.286 12.3335C127.138 12.3547 127.064 12.3759 127.064 12.3971C127.17 12.3971 127.276 12.4289 127.382 12.4925V12.5243H127.413C127.435 12.5243 127.456 12.5137 127.477 12.4925C127.562 12.4713 127.646 12.4713 127.731 12.4925C127.816 12.4925 127.88 12.5455 127.922 12.6514C127.922 12.715 127.954 12.7892 128.017 12.874C128.081 12.874 128.155 12.9163 128.24 13.0011C128.219 13.0435 128.208 13.0647 128.208 13.0647C128.208 13.0859 128.197 13.0965 128.176 13.0965H128.462L128.494 13.2236H128.526C128.42 13.372 128.303 13.4567 128.176 13.4779C128.049 13.4991 127.933 13.5097 127.827 13.5097C127.551 13.5097 127.403 13.5521 127.382 13.6369C127.403 13.6369 127.413 13.6475 127.413 13.6687C127.435 13.6687 127.466 13.6687 127.509 13.6687C127.551 13.6687 127.583 13.6581 127.604 13.6369C127.646 13.6157 127.689 13.6051 127.731 13.6051C127.795 13.5839 127.88 13.6263 127.986 13.7323C128.028 13.7958 127.996 13.817 127.89 13.7958C127.784 13.7534 127.678 13.7323 127.572 13.7323C127.445 13.7323 127.382 13.7323 127.382 13.7323C127.339 13.7958 127.286 13.8806 127.223 13.9866C127.159 14.0925 127.106 14.1561 127.064 14.1773V14.1455C127.021 14.1879 126.979 14.2091 126.936 14.2091C126.915 14.2091 126.862 14.1879 126.778 14.1455C126.735 14.1455 126.767 14.1561 126.873 14.1773C126.979 14.1773 127.095 14.1773 127.223 14.1773C127.371 14.1773 127.498 14.1879 127.604 14.2091C127.71 14.2091 127.752 14.2091 127.731 14.2091C127.646 14.2303 127.53 14.2515 127.382 14.2727C127.254 14.2727 127.17 14.2621 127.127 14.2409V14.2091C127.021 14.2091 126.936 14.2197 126.873 14.2409C126.831 14.2621 126.756 14.2833 126.65 14.3044C126.608 14.3256 126.555 14.315 126.491 14.2727C126.428 14.2303 126.322 14.2303 126.174 14.2727C126.068 14.315 125.951 14.3256 125.824 14.3044C125.697 14.2833 125.58 14.3256 125.474 14.4316L124.457 14.6859C123.864 15.8727 123.44 16.7522 123.185 17.3244C122.952 17.8966 122.804 18.2886 122.74 18.5006C122.677 18.6913 122.666 18.7867 122.709 18.7867C122.772 18.7655 122.804 18.7549 122.804 18.7549C122.825 18.8608 122.825 18.9562 122.804 19.041C122.804 19.1045 122.762 19.1893 122.677 19.2953C122.656 19.486 122.592 19.6873 122.486 19.8993C122.38 20.09 122.306 20.2383 122.264 20.3443C122.242 20.3655 122.211 20.4079 122.168 20.4715C122.147 20.5138 122.136 20.5456 122.136 20.5668L122.168 20.7576C122.126 20.7999 122.083 20.8423 122.041 20.8847C121.999 20.9059 121.924 20.8635 121.819 20.7576C121.988 20.5668 122.083 20.3337 122.105 20.0582L122.391 19.4542C122.391 19.433 122.38 19.4224 122.359 19.4224C122.338 19.4012 122.327 19.38 122.327 19.3588L122.518 19.1681V18.9456L122.55 18.8502L122.454 18.882V18.5641L122.327 18.882L122.359 19.0728L122.041 19.4224C122.041 19.4436 122.03 19.486 122.009 19.5496C122.009 19.592 121.988 19.6344 121.946 19.6767H122.009L121.755 20.3125C121.67 20.5032 121.617 20.7046 121.596 20.9165C121.596 21.1072 121.575 21.2874 121.532 21.4569C121.511 21.5629 121.479 21.6582 121.437 21.743C121.395 21.8278 121.352 21.9231 121.31 22.0291L121.183 22.4106L121.215 22.6331C121.193 22.6543 121.172 22.6649 121.151 22.6649C121.151 22.6649 121.14 22.6755 121.119 22.6967L121.087 22.7285C120.96 22.8344 120.939 22.9616 121.024 23.1099V23.1417C121.066 22.9298 121.151 22.8026 121.278 22.7602C121.257 22.6543 121.278 22.5589 121.342 22.4741C121.426 22.3894 121.554 22.3788 121.723 22.4424C121.617 22.5483 121.522 22.7073 121.437 22.9192C121.373 23.1099 121.31 23.2689 121.246 23.396C121.204 23.502 121.151 23.6291 121.087 23.7775C121.045 23.9258 120.992 24.0318 120.928 24.0954C120.886 24.0954 120.865 24.0848 120.865 24.0636C120.822 24.1483 120.78 24.2649 120.738 24.4133C120.695 24.5616 120.642 24.6888 120.579 24.7947C120.515 25.1762 120.335 25.4941 120.038 25.7484C119.996 25.5576 119.996 25.4411 120.038 25.3987C120.102 25.3563 120.155 25.3245 120.197 25.3033C120.091 25.1974 119.996 25.0808 119.911 24.9537C119.848 24.8477 119.837 24.7523 119.879 24.6676C119.837 24.6888 119.816 24.6994 119.816 24.6994L119.72 24.7629C119.763 24.7841 119.784 24.8053 119.784 24.8265C119.784 24.8689 119.805 24.9643 119.848 25.1126C119.805 25.1762 119.742 25.208 119.657 25.208L119.593 25.2715C119.551 25.2927 119.54 25.3139 119.562 25.3351C119.583 25.3563 119.604 25.3881 119.625 25.4305C119.456 25.4729 119.318 25.4941 119.212 25.4941C119.106 25.5153 119.032 25.5259 118.989 25.5259C118.862 25.6954 118.724 25.7802 118.576 25.7802C118.449 25.7802 118.301 25.7484 118.131 25.6848H118.163C117.993 25.6 117.856 25.5576 117.75 25.5576L117.463 25.4623V25.4941C117.421 25.4729 117.357 25.4517 117.273 25.4305C117.188 25.4093 117.103 25.3457 117.018 25.2398C116.934 25.0702 116.902 24.9325 116.923 24.8265C116.944 24.7417 116.976 24.6676 117.018 24.604C117.04 24.3921 117.04 24.2331 117.018 24.1272C117.082 23.8728 117.146 23.6291 117.209 23.396C117.273 23.1629 117.326 22.9404 117.368 22.7285L117.559 21.8066C117.75 20.9589 117.94 20.2065 118.131 19.5496C118.322 18.8714 118.587 18.1297 118.926 17.3244C119.095 16.9429 119.191 16.5932 119.212 16.2753C119.254 15.9363 119.36 15.576 119.53 15.1945L119.085 15.2899L118.29 15.4171L116.446 15.6714ZM119.975 24.5086L120.197 24.445H120.165C120.187 24.445 120.197 24.4344 120.197 24.4133C120.197 24.4133 120.208 24.4133 120.229 24.4133L120.261 24.3815C120.176 24.1483 120.134 24.0424 120.134 24.0636C120.049 24.0212 120.038 23.9364 120.102 23.8093L120.165 23.7139C120.123 23.6715 120.102 23.6291 120.102 23.5867C120.081 23.5656 120.07 23.5444 120.07 23.5232L119.975 23.7775C119.975 23.7987 119.975 23.8199 119.975 23.8411C119.975 23.8622 119.954 23.894 119.911 23.9364C119.805 24 119.773 24.1589 119.816 24.4133L119.975 24.5086ZM122.55 18.278L122.486 18.3098V18.4052C122.486 18.384 122.497 18.3734 122.518 18.3734C122.539 18.3522 122.55 18.3204 122.55 18.278ZM146.62 3.05125C146.62 3.1784 146.663 3.25258 146.747 3.27377L146.716 3.36913C146.864 3.4539 146.938 3.57046 146.938 3.71881V3.65523C147.108 3.97312 147.192 4.18504 147.192 4.29101C147.214 4.39697 147.182 4.48174 147.097 4.54532C147.033 4.5877 146.949 4.65128 146.843 4.73605C146.737 4.79963 146.663 4.96916 146.62 5.24467C146.663 5.26586 146.663 5.29765 146.62 5.34003C146.578 5.38242 146.493 5.47778 146.366 5.62613H146.525L146.143 6.0076C146.186 6.17714 146.207 6.26191 146.207 6.26191V6.32548H146.239C146.26 6.32548 146.313 6.2831 146.398 6.19833C146.44 6.15594 146.472 6.11356 146.493 6.07117C146.599 6.17714 146.641 6.24071 146.62 6.26191C146.62 6.26191 146.61 6.2831 146.588 6.32548C146.61 6.32548 146.631 6.33608 146.652 6.35727L146.27 7.02483V6.96126C146.228 7.02483 146.217 7.1096 146.239 7.21557C146.26 7.32153 146.249 7.3957 146.207 7.43809C146.08 7.56524 146.027 7.65001 146.048 7.6924C146.069 7.73478 146.048 7.79836 145.984 7.88313C145.9 8.01028 145.836 8.10565 145.794 8.16923C145.772 8.2328 145.762 8.34936 145.762 8.5189C145.741 8.5401 145.73 8.56129 145.73 8.58248C145.709 8.60367 145.698 8.62487 145.698 8.64606V8.67785L145.19 10.0765C145.19 10.0765 145.168 10.1401 145.126 10.2673C145.084 10.3732 145.031 10.5004 144.967 10.6487C144.925 10.7759 144.872 10.9031 144.808 11.0302C144.766 11.1574 144.734 11.2209 144.713 11.2209L143.823 13.0329H143.855C143.812 13.0753 143.77 13.1495 143.727 13.2554C143.706 13.3614 143.674 13.4673 143.632 13.5733C143.547 13.6793 143.452 13.8488 143.346 14.0819C143.24 14.2939 143.134 14.4316 143.028 14.4952H143.155L142.901 15.0038L142.678 15.1945V15.2263C142.657 15.2263 142.636 15.2369 142.615 15.2581C142.657 15.2793 142.657 15.2899 142.615 15.2899C142.636 15.3111 142.636 15.3429 142.615 15.3853C142.594 15.4065 142.594 15.4171 142.615 15.4171C142.551 15.4806 142.466 15.5972 142.36 15.7667C142.276 15.9151 142.17 16.0846 142.043 16.2753C141.937 16.4449 141.831 16.6144 141.725 16.784C141.64 16.9535 141.566 17.0913 141.502 17.1972C141.121 17.833 140.803 18.3204 140.549 18.6595C140.315 18.9774 140.125 19.2317 139.976 19.4224C139.849 19.592 139.754 19.7297 139.69 19.8357C139.627 19.9205 139.563 20.037 139.499 20.1854C139.266 20.4397 139.065 20.6622 138.895 20.8529C138.726 21.0225 138.599 21.192 138.514 21.3615L138.101 21.9337L136.607 23.2053L136.448 23.3324V23.396H136.352C136.162 23.6291 135.96 23.8305 135.748 24C135.536 24.1907 135.303 24.3285 135.049 24.4133L134.858 24.4768C134.752 24.5192 134.636 24.5828 134.509 24.6676C134.466 24.7523 134.392 24.8053 134.286 24.8265C134.18 24.8477 134.095 24.8583 134.032 24.8583C134.011 24.8583 133.989 24.8689 133.968 24.8901C133.947 24.9113 133.915 24.9219 133.873 24.9219C133.767 24.9219 133.714 24.9219 133.714 24.9219C133.735 24.9431 133.714 24.9749 133.65 25.0172L133.205 25.2398C132.972 25.4093 132.591 25.4941 132.061 25.4941C131.531 25.4941 131.033 25.4411 130.567 25.3351C129.528 25.0384 128.797 24.4238 128.373 23.4914C128.013 22.792 127.78 22.0609 127.674 21.298C127.568 20.5138 127.515 19.7297 127.515 18.9456C127.515 17.78 127.6 16.6462 127.769 15.5442C127.96 14.421 128.172 13.3826 128.405 12.4289C128.511 12.323 128.585 12.1958 128.628 12.0474C128.67 11.8779 128.713 11.7402 128.755 11.6342L128.787 11.2209C129.062 10.458 129.274 9.77985 129.422 9.18647C129.571 8.57188 129.783 7.92551 130.058 7.24736L131.012 4.48174C131.054 4.37578 131.086 4.3016 131.107 4.25922C131.128 4.19564 131.15 4.11087 131.171 4.00491C131.192 3.92014 131.224 3.82477 131.266 3.71881C131.33 3.59165 131.383 3.50688 131.425 3.4645C131.404 3.37973 131.404 3.29496 131.425 3.21019C131.446 3.12542 131.468 3.08303 131.489 3.08303L131.552 2.95588H131.521L131.966 2.22474L132.442 1.84328L132.919 1.39823C132.919 1.41943 132.93 1.43002 132.951 1.43002C132.972 1.45122 133.025 1.46181 133.11 1.46181H133.237L133.523 1.58897L133.746 1.87506C133.979 1.93864 134.18 2.09759 134.35 2.35189C134.434 2.41547 134.519 2.44726 134.604 2.44726C134.689 2.42607 134.795 2.46845 134.922 2.57442C135.007 2.80753 135.081 2.9135 135.144 2.8923C135.208 2.87111 135.282 2.9029 135.367 2.98767V3.08303C135.473 3.14661 135.558 3.19959 135.621 3.24198C135.685 3.28436 135.77 3.35854 135.876 3.4645C135.918 3.4645 135.95 3.4751 135.971 3.49629C135.992 3.51748 136.013 3.52808 136.035 3.52808C136.246 3.69762 136.405 3.84596 136.511 3.97312C136.617 4.10027 136.723 4.3016 136.829 4.57711C136.872 4.81022 136.84 5.03274 136.734 5.24467C136.649 5.45659 136.533 5.65792 136.384 5.84865C136.363 5.84865 136.352 5.89104 136.352 5.97581C136.374 6.06058 136.268 6.25131 136.035 6.548C135.929 6.61158 135.833 6.74933 135.748 6.96126C135.664 7.15199 135.611 7.31093 135.589 7.43809L135.335 7.81955L135.144 8.32817L135.017 8.55069C135.017 8.59308 135.007 8.64606 134.985 8.70964C134.985 8.75202 134.933 8.82619 134.827 8.93216C134.784 9.03812 134.721 9.15468 134.636 9.28183C134.572 9.40899 134.54 9.52555 134.54 9.63151C134.477 9.67389 134.434 9.71628 134.413 9.75866C134.413 9.80105 134.413 9.83284 134.413 9.85403L134.318 10.013V10.0448C134.318 10.066 134.307 10.0871 134.286 10.1083C134.286 10.1083 134.286 10.1295 134.286 10.1719C134.244 10.405 134.18 10.6593 134.095 10.9348C134.011 11.1892 133.947 11.4011 133.905 11.5706C133.82 11.8673 133.735 12.1216 133.65 12.3335C133.587 12.5243 133.523 12.715 133.46 12.9057L133.364 13.2236C133.364 13.2872 133.354 13.3614 133.332 13.4462C133.311 13.5309 133.29 13.5945 133.269 13.6369C133.227 13.7005 133.205 13.7746 133.205 13.8594C133.142 14.1137 133.099 14.2833 133.078 14.368C133.057 14.4316 133.025 14.4846 132.983 14.527L132.792 15.131C132.792 15.1733 132.781 15.2687 132.76 15.4171C132.739 15.5654 132.707 15.6926 132.665 15.7985L132.538 16.3389C132.538 16.3813 132.538 16.4343 132.538 16.4979C132.538 16.5403 132.506 16.6144 132.442 16.7204C132.421 16.8052 132.411 16.9323 132.411 17.1019C132.411 17.1442 132.4 17.176 132.379 17.1972C132.336 17.2608 132.294 17.2926 132.252 17.2926C132.23 17.2926 132.22 17.3244 132.22 17.388V17.4515L132.252 17.5151C132.23 17.5151 132.23 17.5257 132.252 17.5469C132.273 17.5469 132.262 17.5469 132.22 17.5469C132.262 17.6105 132.273 17.6529 132.252 17.674C132.23 17.674 132.23 17.6846 132.252 17.7058V17.9601C132.252 18.0449 132.23 18.1085 132.188 18.1509L132.156 18.2145V18.3098C132.114 18.5006 132.093 18.6065 132.093 18.6277C132.093 18.6489 132.093 18.7019 132.093 18.7867C132.093 18.8714 132.093 18.9244 132.093 18.9456C132.093 18.9456 132.082 18.9668 132.061 19.0092L132.093 19.1681C132.072 19.2105 132.061 19.2423 132.061 19.2635C132.061 19.3271 132.072 19.3483 132.093 19.3271C132.177 19.3483 132.22 19.433 132.22 19.5814L132.283 19.8993C132.368 20.0264 132.411 20.196 132.411 20.4079C132.517 20.4079 132.665 20.4185 132.856 20.4397C133.046 20.4609 133.163 20.4291 133.205 20.3443C133.566 20.2383 133.82 20.1112 133.968 19.9628C134.117 19.7933 134.254 19.6555 134.382 19.5496L134.54 19.2953L134.89 19.0092C135.017 18.9032 135.113 18.8184 135.176 18.7549C135.261 18.6701 135.388 18.5006 135.558 18.2462L135.78 17.9601C135.844 17.939 136.013 17.7482 136.289 17.388C136.586 17.0065 136.914 16.5508 137.274 16.021C137.635 15.4912 138.005 14.919 138.387 14.3044C138.768 13.6687 139.076 13.0753 139.309 12.5243C139.839 11.2739 140.284 10.2249 140.644 9.3772C141.025 8.50831 141.343 7.73478 141.598 7.05662C141.852 6.35727 142.074 5.7003 142.265 5.08572C142.477 4.44995 142.678 3.74 142.869 2.95588C142.996 2.84992 143.081 2.74396 143.123 2.63799C143.166 2.53203 143.198 2.39428 143.219 2.22474C143.282 2.26713 143.357 2.25653 143.441 2.19295C143.484 2.00222 143.558 1.85387 143.664 1.74791C143.791 1.64195 143.96 1.53599 144.172 1.43002L144.872 1.4936C145.063 1.53599 145.221 1.59956 145.349 1.68433C145.476 1.7691 145.592 1.83268 145.698 1.87506C145.677 1.87506 145.666 1.88566 145.666 1.90685V2.09759C145.666 2.09759 145.73 2.09759 145.857 2.09759C145.878 2.09759 145.921 2.10818 145.984 2.12937C146.069 2.15057 146.122 2.16116 146.143 2.16116C146.143 2.16116 146.207 2.22474 146.334 2.35189C146.228 2.3307 146.175 2.40488 146.175 2.57442C146.196 2.57442 146.207 2.58501 146.207 2.6062C146.228 2.6274 146.26 2.63799 146.302 2.63799V2.82873L146.493 2.47905C146.535 2.47905 146.588 2.52143 146.652 2.6062C146.673 2.64859 146.684 2.70157 146.684 2.76515C146.684 2.87111 146.663 2.94528 146.62 2.98767V3.05125ZM145.19 10.0765L144.904 10.8077C144.904 10.8077 144.914 10.7759 144.935 10.7123C144.978 10.6487 145.01 10.5746 145.031 10.4898C145.073 10.3838 145.105 10.2885 145.126 10.2037C145.168 10.1189 145.19 10.0765 145.19 10.0765ZM151.237 25.3351L151.491 25.049L150.982 25.3669L150.347 25.5894C150.283 25.5894 150.209 25.6 150.124 25.6212C149.955 25.6636 149.827 25.6848 149.743 25.6848C149.679 25.706 149.626 25.7272 149.584 25.7484C149.541 25.7908 149.382 25.812 149.107 25.812L149.202 25.653L147.454 26.3206C147.39 26.3418 147.284 26.363 147.136 26.3842C147.009 26.4053 146.882 26.4159 146.755 26.4159C146.966 26.31 147.125 26.2358 147.231 26.1934C147.358 26.151 147.486 26.1087 147.613 26.0663C147.74 25.9603 147.867 25.8861 147.994 25.8437C148.121 25.8014 148.206 25.759 148.249 25.7166C148.227 25.7166 148.206 25.7272 148.185 25.7484C148.164 25.7696 148.132 25.7802 148.09 25.7802C147.984 25.7802 147.825 25.8014 147.613 25.8437C147.592 25.8649 147.57 25.8755 147.549 25.8755C147.231 26.0451 146.892 26.1828 146.532 26.2888C146.193 26.3947 145.864 26.5113 145.547 26.6385C145.504 26.6808 145.451 26.7232 145.388 26.7656C145.324 26.808 145.239 26.8292 145.133 26.8292L144.498 26.9881C144.392 27.0305 144.286 27.0623 144.18 27.0835C144.074 27.1259 143.904 27.1683 143.671 27.2107C143.671 27.0623 143.692 26.9775 143.735 26.9563C143.692 26.9563 143.671 26.9563 143.671 26.9563C143.671 26.9775 143.66 26.9881 143.639 26.9881C143.448 27.0729 143.279 27.1471 143.131 27.2107C142.961 27.2742 142.76 27.2742 142.527 27.2107C142.399 27.1683 142.336 27.1047 142.336 27.0199C142.293 27.0199 142.272 27.0093 142.272 26.9881C142.251 26.9881 142.219 26.9881 142.177 26.9881L141.7 26.8928C141.679 26.914 141.658 26.914 141.637 26.8928C141.594 26.8716 141.562 26.8504 141.541 26.8292V26.7338H141.414C141.414 26.6914 141.403 26.6173 141.382 26.5113C141.361 26.4265 141.34 26.3524 141.319 26.2888C141.234 25.9921 141.181 25.6848 141.16 25.3669C141.117 25.049 141.202 24.7523 141.414 24.4768C141.435 24.4556 141.467 24.4238 141.509 24.3815C141.531 24.3603 141.562 24.2967 141.605 24.1907C141.774 24.1272 141.891 24.0636 141.954 24C142.018 23.9576 142.103 23.894 142.209 23.8093L142.781 23.5867C142.675 23.5444 142.58 23.4914 142.495 23.4278C142.389 23.3642 142.293 23.2583 142.209 23.1099C142.251 22.6861 142.315 22.3258 142.399 22.0291C142.463 21.7112 142.537 21.3827 142.622 21.0437H142.654L142.717 20.9801C143.12 19.6661 143.554 18.5429 144.021 17.6105C144.466 16.6568 144.921 15.682 145.388 14.6859C145.79 13.9442 146.161 13.213 146.5 12.4925C146.86 11.7508 147.221 10.9242 147.581 10.013C147.793 9.56793 147.984 9.15468 148.153 8.77321C148.323 8.39175 148.503 7.9679 148.694 7.50166C148.63 7.48047 148.566 7.46988 148.503 7.46988C148.333 7.46988 148.217 7.44868 148.153 7.4063C148.005 7.38511 147.899 7.36391 147.835 7.34272C147.772 7.32153 147.698 7.28974 147.613 7.24736C147.57 7.20497 147.507 7.17318 147.422 7.15199C147.337 7.1096 147.274 7.07782 147.231 7.05662C147.168 6.99305 147.104 6.91887 147.041 6.8341C146.998 6.77052 146.945 6.71754 146.882 6.67516C146.818 6.63277 146.765 6.59039 146.723 6.548C146.553 6.31489 146.384 6.11356 146.214 5.94402C146.066 5.75329 145.96 5.54136 145.896 5.30825C145.896 5.28705 145.854 5.21288 145.769 5.08572L145.674 4.79963H145.705C145.642 4.77843 145.61 4.69366 145.61 4.54532C145.907 3.93073 146.362 3.52808 146.977 3.33735C147.147 3.35854 147.295 3.33735 147.422 3.27377C147.57 3.21019 147.719 3.13602 147.867 3.05125L148.439 2.82873C148.63 2.80753 148.831 2.77574 149.043 2.73336C149.255 2.66978 149.446 2.56382 149.615 2.41547L150.219 2.25653H150.188C150.336 2.21414 150.559 2.16116 150.855 2.09759C151.173 2.01282 151.459 1.93864 151.714 1.87506C151.989 1.79029 152.19 1.72672 152.318 1.68433C152.466 1.62076 152.455 1.58897 152.286 1.58897L152.413 1.52539C153.197 1.31347 154.034 1.12273 154.924 0.953193C155.835 0.783653 156.747 0.656498 157.658 0.571728C158.018 0.529344 158.4 0.497555 158.802 0.476363C159.226 0.433977 159.608 0.412785 159.947 0.412785C160.371 0.412785 160.816 0.433977 161.282 0.476363C161.748 0.518747 162.204 0.592921 162.649 0.698883C162.924 0.741269 163.21 0.826039 163.507 0.953193C163.825 1.05916 164.101 1.2181 164.334 1.43002C164.567 1.62076 164.758 1.84328 164.906 2.09759C165.075 2.3519 165.16 2.6168 165.16 2.8923C165.16 2.99827 165.15 3.12542 165.128 3.27377C165.128 3.42212 165.107 3.52808 165.065 3.59166H165.128C165.107 3.78239 165.097 3.90954 165.097 3.97312C165.097 4.0367 165.097 4.08968 165.097 4.13206C165.097 4.3016 165.075 4.44995 165.033 4.57711C165.054 4.91618 165.012 5.26586 164.906 5.62613C164.821 5.96521 164.683 6.25131 164.493 6.48443C164.45 6.548 164.387 6.61158 164.302 6.67516C164.238 6.71754 164.185 6.74933 164.143 6.77052L164.016 6.86589H164.048C164.005 6.90828 163.952 6.97185 163.889 7.05662C163.825 7.14139 163.74 7.18378 163.634 7.18378C163.528 7.28974 163.327 7.4063 163.03 7.53345H162.999V7.59703L162.744 7.78776C162.575 7.91492 162.437 8.04207 162.331 8.16923C162.225 8.27519 162.087 8.44473 161.918 8.67785L161.759 8.70964C161.441 8.92156 161.134 9.12289 160.837 9.31362C160.561 9.48316 160.265 9.63151 159.947 9.75866C159.904 9.80105 159.851 9.85403 159.788 9.91761C159.724 9.98118 159.671 10.0554 159.629 10.1401C159.523 10.2249 159.428 10.2991 159.343 10.3626C159.279 10.4262 159.173 10.458 159.025 10.458C158.898 10.458 158.771 10.5004 158.643 10.5852C158.538 10.6487 158.463 10.7123 158.421 10.7759C158.209 10.8183 158.018 10.8819 157.849 10.9666C157.7 11.0302 157.573 11.0938 157.467 11.1574H157.626C157.52 11.3269 157.414 11.4223 157.308 11.4435C157.202 11.4647 157.128 11.4858 157.086 11.507V11.5706C157.976 11.9309 158.781 12.323 159.502 12.7468C160.222 13.1706 160.858 13.7534 161.409 14.4952C161.43 14.6011 161.451 14.6859 161.473 14.7495C161.515 14.7919 161.557 14.8343 161.6 14.8766C161.748 15.1098 161.854 15.3217 161.918 15.5124C162.002 15.7031 162.066 15.9363 162.108 16.2118C162.13 16.2965 162.14 16.4131 162.14 16.5614C162.161 16.7098 162.172 16.8052 162.172 16.8475C162.193 16.9323 162.225 17.0595 162.267 17.229C162.31 17.3985 162.352 17.5363 162.395 17.6423C162.352 17.8118 162.32 17.9496 162.299 18.0555C162.299 18.1403 162.31 18.2462 162.331 18.3734C162.331 18.5006 162.32 18.6171 162.299 18.7231C162.299 18.829 162.257 18.9456 162.172 19.0728C162.172 19.0939 162.172 19.1363 162.172 19.1999C162.172 19.2635 162.161 19.3377 162.14 19.4224C162.161 19.4648 162.161 19.5284 162.14 19.6132C162.119 19.6767 162.108 19.7297 162.108 19.7721C162.066 19.8993 162.002 20.0158 161.918 20.1218C161.854 20.2065 161.748 20.3019 161.6 20.4079L161.123 21.139C160.445 21.7536 159.724 22.294 158.961 22.7602C158.22 23.2265 157.372 23.6397 156.418 24H156.228C156.122 24.0848 156.026 24.1483 155.941 24.1907C155.857 24.2331 155.793 24.2755 155.751 24.3179C155.708 24.3391 155.655 24.3497 155.592 24.3497C155.528 24.3497 155.433 24.3921 155.306 24.4768C155.263 24.4344 155.157 24.4556 154.988 24.5404C154.839 24.6464 154.744 24.7311 154.702 24.7947L154.002 24.9219L153.748 24.9537L153.907 25.0172L153.557 25.1444L153.144 25.4941H153.112C153.006 25.5365 152.922 25.5576 152.858 25.5576C152.816 25.5576 152.752 25.5576 152.667 25.5576H152.54C152.371 25.6636 152.212 25.7166 152.063 25.7166H152C151.978 25.7166 151.968 25.7484 151.968 25.812C151.925 25.8331 151.862 25.8437 151.777 25.8437C151.692 25.8437 151.597 25.8437 151.491 25.8437C151.449 25.8437 151.406 25.8437 151.364 25.8437C151.321 25.8649 151.279 25.9285 151.237 26.0345C151.216 25.9285 151.205 25.8649 151.205 25.8437C150.908 25.9497 150.622 26.0451 150.347 26.1298C150.071 26.2358 149.785 26.3418 149.488 26.4477L149.361 26.3524C149.531 26.2888 149.7 26.2252 149.87 26.1616C150.039 26.0981 150.209 26.0027 150.378 25.8755C150.527 25.7908 150.675 25.7166 150.823 25.653C150.993 25.6106 151.141 25.5682 151.269 25.5259V25.4623H151.237V25.3351ZM157.626 18.278L157.849 18.1827L158.103 18.0873L158.326 17.9601V17.9919L158.516 17.7694C158.622 17.727 158.696 17.6846 158.739 17.6423C158.781 17.5787 158.845 17.4621 158.93 17.2926C158.972 17.1866 159.036 17.0913 159.12 17.0065C159.205 16.9005 159.237 16.8369 159.216 16.8158V16.625C159.216 16.5826 159.205 16.5508 159.184 16.5297C159.184 16.5085 159.131 16.4343 159.025 16.3071C158.983 16.2012 158.908 16.127 158.802 16.0846C158.696 16.0422 158.591 15.9998 158.485 15.9575L158.23 15.6714V15.7031C158.145 15.6608 158.082 15.6184 158.039 15.576C157.997 15.5336 157.923 15.5124 157.817 15.5124C157.69 15.4488 157.51 15.3853 157.277 15.3217C157.043 15.2581 156.8 15.1733 156.545 15.0674C156.461 15.025 156.376 14.9932 156.291 14.972C156.206 14.9508 156.122 14.9296 156.037 14.9084H155.846L155.782 14.972L155.496 14.8131C155.454 14.8131 155.401 14.8131 155.337 14.8131C155.295 14.7919 155.263 14.7813 155.242 14.7813C155.115 14.7813 155.02 14.7707 154.956 14.7495H154.988C154.818 14.7071 154.659 14.6859 154.511 14.6859L152.794 14.3998C152.392 14.3362 151.968 14.2833 151.523 14.2409C151.099 14.1985 150.675 14.1561 150.251 14.1137C150.145 14.368 150.029 14.6117 149.902 14.8449C149.796 15.0568 149.658 15.3111 149.488 15.6078C149.446 15.8409 149.34 16.1376 149.17 16.4979C149.022 16.8369 148.895 17.1019 148.789 17.2926C148.513 17.7588 148.28 18.0237 148.09 18.0873C147.984 18.1297 147.878 18.1933 147.772 18.278C147.687 18.3628 147.592 18.49 147.486 18.6595C147.38 18.6595 147.306 18.6807 147.263 18.7231C147.263 18.7655 147.253 18.8078 147.231 18.8502C147.168 18.9562 147.125 19.0198 147.104 19.041L147.072 19.1999C147.03 19.1999 147.009 19.2317 147.009 19.2953C147.009 19.3377 147.009 19.38 147.009 19.4224C146.966 19.4224 146.945 19.4436 146.945 19.486C146.966 19.5284 146.956 19.5814 146.913 19.6449C146.892 19.6873 146.85 19.7403 146.786 19.8039C146.723 19.8675 146.659 19.8993 146.596 19.8993L146.564 19.7721C146.521 19.8357 146.511 19.8357 146.532 19.7721C146.553 19.7085 146.574 19.6449 146.596 19.5814L146.468 19.8357C146.384 19.9628 146.352 20.0476 146.373 20.09C146.394 20.1112 146.426 20.143 146.468 20.1854C146.384 20.2489 146.309 20.3019 146.246 20.3443C146.204 20.3655 146.172 20.3973 146.151 20.4397L145.96 20.7893L145.896 20.694C145.854 20.7152 145.822 20.7364 145.801 20.7576C145.801 20.7787 145.79 20.7999 145.769 20.8211C145.769 20.8635 145.78 20.9271 145.801 21.0119C145.843 21.0754 145.833 21.0648 145.769 20.9801L145.61 21.3615L145.451 21.8066L145.324 22.0927C145.303 22.1563 145.271 22.2092 145.229 22.2516C145.186 22.294 145.059 22.3576 144.847 22.4424C144.953 22.1669 145.038 21.9655 145.101 21.8384C145.165 21.69 145.218 21.5417 145.26 21.3933C145.154 21.4357 145.08 21.4993 145.038 21.5841C145.017 21.6688 145.006 21.7536 145.006 21.8384L144.688 22.3788H144.656C144.614 22.4424 144.572 22.5059 144.529 22.5695C144.508 22.6119 144.476 22.6543 144.434 22.6967L144.18 22.9828H144.116C144.158 23.0251 144.148 23.0463 144.084 23.0463L143.925 23.1417C143.883 23.1841 143.862 23.2053 143.862 23.2053C143.841 23.2053 143.841 23.2371 143.862 23.3006C144.752 22.9404 145.642 22.6225 146.532 22.347C147.443 22.0715 148.344 21.796 149.234 21.5205C150.612 21.0966 151.968 20.6622 153.303 20.2171C154.638 19.7509 155.931 19.1999 157.181 18.5641L157.626 18.278ZM154.034 9.02752C154.988 8.49771 155.931 7.9785 156.863 7.46988C157.817 6.94006 158.739 6.42085 159.629 5.91223C159.693 5.82746 159.798 5.73209 159.947 5.62613C160.116 5.49898 160.233 5.41421 160.296 5.37182C160.593 5.11751 160.869 4.89499 161.123 4.70426C161.399 4.49233 161.621 4.29101 161.791 4.10027C161.621 4.07908 161.43 4.05789 161.218 4.0367C161.028 4.0155 160.837 4.00491 160.646 4.00491C160.095 4.00491 159.555 4.04729 159.025 4.13206C158.516 4.19564 158.008 4.28041 157.499 4.38637L157.531 4.44995H157.404C157.404 4.36518 157.383 4.33339 157.34 4.35458C157.298 4.37578 157.266 4.38637 157.245 4.38637C157.202 4.38637 157.16 4.40756 157.118 4.44995C157.096 4.47114 157.065 4.48174 157.022 4.48174C156.98 4.48174 156.948 4.49233 156.927 4.51353C156.906 4.53472 156.874 4.54532 156.832 4.54532H156.8C156.779 4.54532 156.757 4.55591 156.736 4.57711C156.715 4.57711 156.694 4.57711 156.673 4.57711L155.21 4.89499C155.168 4.91618 155.083 4.96917 154.956 5.05394C154.85 5.11751 154.776 5.1493 154.733 5.1493C154.649 5.19169 154.532 5.24467 154.384 5.30825C154.235 5.35063 154.129 5.39301 154.066 5.4354V5.40361L153.812 5.59434C153.812 5.63673 153.812 5.67911 153.812 5.7215C153.812 5.76388 153.822 5.79567 153.843 5.81686C153.907 5.85925 153.939 5.89104 153.939 5.91223C153.96 5.93342 153.981 5.96521 154.002 6.0076C153.939 6.21952 153.875 6.39966 153.812 6.548C153.769 6.67516 153.727 6.79172 153.684 6.89768L153.557 7.27914C152.922 8.10565 152.371 9.06991 151.904 10.1719C152.137 10.066 152.349 9.95999 152.54 9.85403C152.731 9.74807 152.943 9.6421 153.176 9.53614L154.034 9.02752ZM157.245 10.7759C157.118 10.8395 156.959 10.9242 156.768 11.0302C156.577 11.1362 156.386 11.2315 156.196 11.3163C156.302 11.3163 156.386 11.2951 156.45 11.2527H156.418C156.461 11.2527 156.524 11.2315 156.609 11.1892L156.736 11.1256C156.8 11.1256 156.863 11.0938 156.927 11.0302H156.863C157.16 10.8395 157.51 10.617 157.912 10.3626C158.315 10.1083 158.665 9.87522 158.961 9.6633C159.046 9.62091 159.142 9.57853 159.247 9.53614C159.353 9.49376 159.449 9.44078 159.534 9.3772C159.534 9.3772 159.491 9.35601 159.406 9.31362H159.375C159.375 9.35601 159.332 9.38779 159.247 9.40899C159.163 9.40899 159.089 9.41958 159.025 9.44078L158.612 9.69509C158.463 9.86462 158.326 9.97059 158.198 10.013C158.092 10.0765 157.987 10.1295 157.881 10.1719C157.796 10.2143 157.711 10.2567 157.626 10.2991L157.308 10.5216C157.351 10.5004 157.404 10.4898 157.467 10.4898C157.552 10.4898 157.616 10.4898 157.658 10.4898L157.245 10.7759ZM150.029 25.3987C149.923 25.4411 149.838 25.4729 149.774 25.4941C149.711 25.5153 149.626 25.5365 149.52 25.5576H149.615C149.637 25.5576 149.647 25.5471 149.647 25.5259C149.668 25.5259 149.69 25.5259 149.711 25.5259L150.124 25.4305L150.537 25.1762L151.173 24.9854L151.427 24.8901L151.809 24.8265C151.915 24.8053 152.031 24.7735 152.159 24.7311C152.286 24.6888 152.328 24.6676 152.286 24.6676C152.328 24.6252 152.36 24.604 152.381 24.604C152.593 24.5192 152.784 24.4556 152.953 24.4133C153.123 24.3709 153.271 24.2967 153.398 24.1907L153.589 24.1589C153.653 24.1166 153.695 24.0742 153.716 24.0318C153.759 24.0106 153.833 24 153.939 24C153.981 23.9788 154.002 23.9894 154.002 24.0318C154.002 24.0954 154.013 24.0742 154.034 23.9682C153.886 23.9894 153.737 24.0212 153.589 24.0636C153.441 24.106 153.282 24.1589 153.112 24.2225L153.144 24.2861C152.593 24.4768 152.042 24.657 151.491 24.8265C150.961 24.996 150.474 25.1868 150.029 25.3987ZM151.968 25.1126L151.872 25.1762C151.915 25.1762 151.968 25.2292 152.031 25.3351C152.074 25.2504 152.116 25.1762 152.159 25.1126C152.201 25.0702 152.233 25.0278 152.254 24.9854L151.968 25.1126ZM156.768 10.3626C156.726 10.3626 156.694 10.3838 156.673 10.4262C156.673 10.4474 156.662 10.458 156.641 10.458H156.673H156.704C156.747 10.458 156.768 10.4262 156.768 10.3626ZM145.324 21.1708L145.356 21.0754V20.9801C145.356 21.0013 145.345 21.0331 145.324 21.0754C145.324 21.0966 145.324 21.1284 145.324 21.1708ZM151.872 24.9537C151.851 24.9537 151.756 24.9749 151.586 25.0172C151.608 24.996 151.639 24.9854 151.682 24.9854C151.767 24.9854 151.83 24.9749 151.872 24.9537ZM155.91 10.8077C155.867 10.8077 155.846 10.8183 155.846 10.8395C155.867 10.8183 155.888 10.8077 155.91 10.8077ZM152.222 24.8583H152.159H152.222ZM156.069 11.1574H156.005H156.069ZM156.418 10.5852L156.45 10.5534C156.45 10.5746 156.429 10.5852 156.386 10.5852H156.418ZM146.977 18.7549L147.009 18.7867C147.009 18.7655 146.998 18.7549 146.977 18.7549Z" fill="white"/>
</g>
<defs>
<linearGradient id="paint0_linear_4654_4023" x1="27.588" y1="3.49783" x2="-0.106129" y2="27.1408" gradientUnits="userSpaceOnUse">
<stop stop-color="#FF34BF"/>
<stop offset="1" stop-color="#638BFE"/>
</linearGradient>
<clipPath id="clip0_4654_4023">
<rect width="162" height="32" fill="white"/>
</clipPath>
</defs>
</svg>
